G75*
%MOIN*%
%OFA0B0*%
%FSLAX25Y25*%
%IPPOS*%
%LPD*%
%AMOC8*
5,1,8,0,0,1.08239X$1,22.5*
%
%ADD10OC8,0.06000*%
%ADD11C,0.04800*%
%ADD12C,0.06000*%
%ADD13R,0.10000X0.05000*%
%ADD14R,0.06299X0.07098*%
%ADD15R,0.02165X0.04724*%
%ADD16R,0.05000X0.10000*%
%ADD17R,0.01575X0.05906*%
%ADD18C,0.01000*%
%ADD19C,0.02969*%
%ADD20C,0.00600*%
D10*
X0016072Y0013930D03*
X0016072Y0023930D03*
X0026072Y0023930D03*
X0026072Y0013930D03*
X0048277Y0013930D03*
X0058277Y0013930D03*
X0058277Y0023930D03*
X0048277Y0023930D03*
X0048277Y0033930D03*
X0058277Y0033930D03*
X0058277Y0043930D03*
X0048277Y0043930D03*
X0048277Y0053930D03*
X0058277Y0053930D03*
X0058277Y0063930D03*
X0048277Y0063930D03*
X0048277Y0073930D03*
X0058277Y0073930D03*
X0058277Y0083930D03*
X0048277Y0083930D03*
X0048277Y0093930D03*
X0058277Y0093930D03*
X0058277Y0103930D03*
X0048277Y0103930D03*
X0048277Y0113930D03*
X0058277Y0113930D03*
X0058277Y0123930D03*
X0048277Y0123930D03*
X0048277Y0133930D03*
X0058277Y0133930D03*
X0058277Y0143930D03*
X0048277Y0143930D03*
X0048277Y0153930D03*
X0058277Y0153930D03*
X0058277Y0163930D03*
X0048277Y0163930D03*
X0048277Y0173930D03*
X0058277Y0173930D03*
X0058277Y0183930D03*
X0048277Y0183930D03*
X0048277Y0193930D03*
X0058277Y0193930D03*
X0058277Y0203930D03*
X0048277Y0203930D03*
X0026072Y0203930D03*
X0016072Y0203930D03*
X0016072Y0193930D03*
X0026072Y0193930D03*
X0026072Y0183930D03*
X0016072Y0183930D03*
X0016072Y0173930D03*
X0026072Y0173930D03*
X0026072Y0163930D03*
X0016072Y0163930D03*
X0016072Y0153930D03*
X0026072Y0153930D03*
X0026072Y0143930D03*
X0016072Y0143930D03*
X0016072Y0133930D03*
X0026072Y0133930D03*
X0026072Y0123930D03*
X0016072Y0123930D03*
X0016072Y0113930D03*
X0016072Y0103930D03*
X0026072Y0103930D03*
X0026072Y0113930D03*
X0026072Y0093930D03*
X0016072Y0093930D03*
X0016072Y0083930D03*
X0026072Y0083930D03*
X0026072Y0073930D03*
X0016072Y0073930D03*
X0016072Y0063930D03*
X0026072Y0063930D03*
X0026072Y0053930D03*
X0016072Y0053930D03*
X0016072Y0043930D03*
X0026072Y0043930D03*
X0026072Y0033930D03*
X0016072Y0033930D03*
X0138277Y0034462D03*
X0148277Y0034462D03*
X0148277Y0024462D03*
X0138277Y0024462D03*
X0138277Y0014462D03*
X0148277Y0014462D03*
X0223277Y0013930D03*
X0233277Y0013930D03*
X0233277Y0023930D03*
X0223277Y0023930D03*
X0223277Y0033930D03*
X0233277Y0033930D03*
X0233277Y0043930D03*
X0223277Y0043930D03*
X0223277Y0053930D03*
X0233277Y0053930D03*
X0233277Y0063930D03*
X0223277Y0063930D03*
X0223277Y0073930D03*
X0233277Y0073930D03*
X0233277Y0083930D03*
X0223277Y0083930D03*
X0223277Y0093930D03*
X0233277Y0093930D03*
X0233277Y0103930D03*
X0223277Y0103930D03*
X0223277Y0113930D03*
X0233277Y0113930D03*
X0233277Y0123930D03*
X0223277Y0123930D03*
X0223277Y0133930D03*
X0233277Y0133930D03*
X0233277Y0143930D03*
X0223277Y0143930D03*
X0223277Y0153930D03*
X0233277Y0153930D03*
X0233277Y0163930D03*
X0223277Y0163930D03*
X0223277Y0173930D03*
X0233277Y0173930D03*
X0233277Y0183930D03*
X0223277Y0183930D03*
X0223277Y0193930D03*
X0233277Y0193930D03*
X0233277Y0203930D03*
X0223277Y0203930D03*
X0256072Y0203930D03*
X0256072Y0193930D03*
X0266072Y0193930D03*
X0266072Y0203930D03*
X0266072Y0183930D03*
X0256072Y0183930D03*
X0256072Y0173930D03*
X0266072Y0173930D03*
X0266072Y0163930D03*
X0256072Y0163930D03*
X0256072Y0153930D03*
X0266072Y0153930D03*
X0266072Y0143930D03*
X0256072Y0143930D03*
X0256072Y0133930D03*
X0266072Y0133930D03*
X0266072Y0123930D03*
X0256072Y0123930D03*
X0256072Y0113930D03*
X0256072Y0103930D03*
X0266072Y0103930D03*
X0266072Y0113930D03*
X0266072Y0093930D03*
X0256072Y0093930D03*
X0256072Y0083930D03*
X0266072Y0083930D03*
X0266072Y0073930D03*
X0256072Y0073930D03*
X0256072Y0063930D03*
X0266072Y0063930D03*
X0266072Y0053930D03*
X0256072Y0053930D03*
X0256072Y0043930D03*
X0266072Y0043930D03*
X0266072Y0033930D03*
X0256072Y0033930D03*
X0256072Y0023930D03*
X0256072Y0013930D03*
X0266072Y0013930D03*
X0266072Y0023930D03*
D11*
X0208277Y0074462D03*
X0198277Y0074462D03*
X0188277Y0074462D03*
X0178277Y0074462D03*
X0168277Y0074462D03*
X0158277Y0074462D03*
X0148277Y0074462D03*
X0138277Y0074462D03*
X0128277Y0074462D03*
X0118277Y0074462D03*
X0108277Y0074462D03*
X0098277Y0074462D03*
X0088277Y0074462D03*
X0078277Y0074462D03*
X0078277Y0134462D03*
X0088277Y0134462D03*
X0098277Y0134462D03*
X0108277Y0134462D03*
X0118277Y0134462D03*
X0128277Y0134462D03*
X0138277Y0134462D03*
X0148277Y0134462D03*
X0158277Y0134462D03*
X0168277Y0134462D03*
X0178277Y0134462D03*
X0188277Y0134462D03*
X0198277Y0134462D03*
X0208277Y0134462D03*
X0208277Y0149462D03*
X0198277Y0149462D03*
X0188277Y0149462D03*
X0178277Y0149462D03*
X0168277Y0149462D03*
X0158277Y0149462D03*
X0148277Y0149462D03*
X0138277Y0149462D03*
X0128277Y0149462D03*
X0118277Y0149462D03*
X0108277Y0149462D03*
X0098277Y0149462D03*
X0088277Y0149462D03*
X0078277Y0149462D03*
X0078277Y0179462D03*
X0088277Y0179462D03*
X0098277Y0179462D03*
X0108277Y0179462D03*
X0118277Y0179462D03*
X0128277Y0179462D03*
X0138277Y0179462D03*
X0148277Y0179462D03*
X0158277Y0179462D03*
X0168277Y0179462D03*
X0178277Y0179462D03*
X0188277Y0179462D03*
X0198277Y0179462D03*
X0208277Y0179462D03*
D12*
X0208277Y0191462D02*
X0208277Y0197462D01*
X0198277Y0197462D02*
X0198277Y0191462D01*
X0188277Y0191462D02*
X0188277Y0197462D01*
X0178277Y0197462D02*
X0178277Y0191462D01*
X0168277Y0191462D02*
X0168277Y0197462D01*
X0158277Y0197462D02*
X0158277Y0191462D01*
X0148277Y0191462D02*
X0148277Y0197462D01*
X0138277Y0197462D02*
X0138277Y0191462D01*
X0128277Y0191462D02*
X0128277Y0197462D01*
X0118277Y0197462D02*
X0118277Y0191462D01*
X0108277Y0191462D02*
X0108277Y0197462D01*
X0098277Y0197462D02*
X0098277Y0191462D01*
X0088277Y0191462D02*
X0088277Y0197462D01*
X0078277Y0197462D02*
X0078277Y0191462D01*
X0078277Y0057462D02*
X0078277Y0051462D01*
X0088277Y0051462D02*
X0088277Y0057462D01*
X0098277Y0057462D02*
X0098277Y0051462D01*
X0108277Y0051462D02*
X0108277Y0057462D01*
X0118277Y0057462D02*
X0118277Y0051462D01*
X0128277Y0051462D02*
X0128277Y0057462D01*
X0138277Y0057462D02*
X0138277Y0051462D01*
X0148277Y0051462D02*
X0148277Y0057462D01*
X0158277Y0057462D02*
X0158277Y0051462D01*
X0168277Y0051462D02*
X0168277Y0057462D01*
X0178277Y0057462D02*
X0178277Y0051462D01*
X0188277Y0051462D02*
X0188277Y0057462D01*
X0198277Y0057462D02*
X0198277Y0051462D01*
X0208277Y0051462D02*
X0208277Y0057462D01*
X0081277Y0034462D02*
X0075277Y0034462D01*
X0075277Y0024462D02*
X0081277Y0024462D01*
X0081277Y0014462D02*
X0075277Y0014462D01*
D13*
X0093277Y0014462D03*
X0093277Y0024462D03*
X0093277Y0034462D03*
X0108277Y0034462D03*
X0108277Y0024462D03*
X0108277Y0014462D03*
X0123277Y0014462D03*
X0123277Y0024462D03*
X0123277Y0034462D03*
X0163277Y0009462D03*
X0178277Y0009462D03*
X0193277Y0009462D03*
X0208277Y0009462D03*
X0200777Y0164462D03*
X0160777Y0164462D03*
X0120777Y0164462D03*
X0083277Y0164462D03*
D14*
X0095179Y0164462D03*
X0106376Y0164462D03*
X0135179Y0164462D03*
X0146376Y0164462D03*
X0175179Y0164462D03*
X0186376Y0164462D03*
D15*
X0197537Y0027080D03*
X0201277Y0027080D03*
X0205017Y0027080D03*
X0205017Y0016844D03*
X0197537Y0016844D03*
X0174517Y0016844D03*
X0167037Y0016844D03*
X0167037Y0027080D03*
X0170777Y0027080D03*
X0174517Y0027080D03*
D16*
X0170777Y0036962D03*
X0180777Y0036962D03*
X0190777Y0036962D03*
X0200777Y0036962D03*
X0210777Y0036962D03*
X0160777Y0036962D03*
D17*
X0159911Y0090190D03*
X0157352Y0090190D03*
X0154793Y0090190D03*
X0152234Y0090190D03*
X0149675Y0090190D03*
X0147116Y0090190D03*
X0144557Y0090190D03*
X0141998Y0090190D03*
X0139439Y0090190D03*
X0136880Y0090190D03*
X0134320Y0090190D03*
X0131761Y0090190D03*
X0129202Y0090190D03*
X0126643Y0090190D03*
X0126643Y0118734D03*
X0129202Y0118734D03*
X0131761Y0118734D03*
X0134320Y0118734D03*
X0136880Y0118734D03*
X0139439Y0118734D03*
X0141998Y0118734D03*
X0144557Y0118734D03*
X0147116Y0118734D03*
X0149675Y0118734D03*
X0152234Y0118734D03*
X0154793Y0118734D03*
X0157352Y0118734D03*
X0159911Y0118734D03*
D18*
X0159911Y0116962D01*
X0167277Y0116962D01*
X0169277Y0114962D01*
X0173277Y0114962D01*
X0175277Y0116962D01*
X0175277Y0122962D01*
X0176277Y0123962D01*
X0197777Y0123962D01*
X0208277Y0134462D01*
X0208477Y0135162D01*
X0208477Y0148662D01*
X0208277Y0149462D01*
X0198577Y0148662D02*
X0198277Y0149462D01*
X0198577Y0148662D02*
X0198577Y0135162D01*
X0198277Y0134462D01*
X0197777Y0133962D01*
X0195277Y0133962D01*
X0187277Y0125962D01*
X0173277Y0125962D01*
X0171277Y0123962D01*
X0171277Y0118962D01*
X0171277Y0123962D02*
X0158277Y0123962D01*
X0157352Y0123037D01*
X0157352Y0118734D01*
X0154793Y0118734D02*
X0154793Y0114446D01*
X0156277Y0112962D01*
X0166277Y0112962D01*
X0160277Y0109962D02*
X0155277Y0109962D01*
X0152234Y0113005D01*
X0152234Y0118734D01*
X0152277Y0118777D01*
X0152277Y0124962D01*
X0155277Y0127962D01*
X0165277Y0127962D01*
X0167277Y0129962D01*
X0170277Y0129962D01*
X0174777Y0134462D01*
X0178277Y0134462D01*
X0178777Y0135162D01*
X0178777Y0148662D01*
X0178277Y0149462D01*
X0168877Y0148662D02*
X0168277Y0149462D01*
X0168877Y0148662D02*
X0168877Y0135162D01*
X0168277Y0134462D01*
X0164777Y0134462D01*
X0160277Y0129962D01*
X0154277Y0129962D01*
X0152277Y0127962D01*
X0150277Y0127962D01*
X0149675Y0127360D01*
X0149675Y0118734D01*
X0149675Y0110564D01*
X0150277Y0109962D01*
X0147116Y0118734D02*
X0147116Y0129801D01*
X0147277Y0129962D01*
X0150277Y0129962D01*
X0154277Y0133962D01*
X0157777Y0133962D01*
X0158277Y0134462D01*
X0158977Y0135162D01*
X0158977Y0148662D01*
X0158277Y0149462D01*
X0148277Y0149462D02*
X0148177Y0148662D01*
X0148177Y0135162D01*
X0148277Y0134462D01*
X0144557Y0130741D01*
X0144557Y0118734D01*
X0141998Y0118734D02*
X0141998Y0130741D01*
X0138277Y0134462D01*
X0138277Y0149462D01*
X0128377Y0148662D02*
X0128277Y0149462D01*
X0128377Y0148662D02*
X0128377Y0135162D01*
X0128277Y0134462D01*
X0132777Y0134462D01*
X0137277Y0129962D01*
X0138277Y0129962D01*
X0139439Y0128801D01*
X0139439Y0118734D01*
X0136880Y0118734D02*
X0136880Y0113360D01*
X0139277Y0110962D01*
X0134320Y0111005D02*
X0134320Y0118734D01*
X0134277Y0118777D01*
X0134277Y0126962D01*
X0133277Y0127962D01*
X0115277Y0127962D01*
X0108777Y0134462D01*
X0108277Y0134462D01*
X0108577Y0135162D01*
X0108577Y0148662D01*
X0108277Y0149462D01*
X0098677Y0148662D02*
X0098277Y0149462D01*
X0098677Y0148662D02*
X0098677Y0135162D01*
X0098277Y0134462D01*
X0106777Y0125962D01*
X0131277Y0125962D01*
X0131761Y0125478D01*
X0131761Y0118734D01*
X0131761Y0113446D01*
X0130277Y0111962D01*
X0120277Y0111962D01*
X0116277Y0113962D02*
X0098777Y0113962D01*
X0078277Y0134462D01*
X0078877Y0135162D01*
X0078877Y0148662D01*
X0078277Y0149462D01*
X0088277Y0149462D02*
X0088777Y0148662D01*
X0088777Y0135162D01*
X0088277Y0134462D01*
X0098777Y0123962D01*
X0115277Y0123962D01*
X0115277Y0118962D01*
X0119277Y0116962D02*
X0116277Y0113962D01*
X0119277Y0116962D02*
X0126277Y0116962D01*
X0126643Y0117328D01*
X0126643Y0118734D01*
X0129202Y0118734D02*
X0129202Y0123887D01*
X0129277Y0123962D01*
X0115277Y0123962D01*
X0121777Y0134462D02*
X0126277Y0129962D01*
X0134277Y0129962D01*
X0136880Y0127360D01*
X0136880Y0118734D01*
X0134320Y0111005D02*
X0134277Y0110962D01*
X0134277Y0100962D02*
X0134320Y0100919D01*
X0134320Y0090190D01*
X0134320Y0083005D01*
X0134277Y0082962D01*
X0131277Y0082962D01*
X0129277Y0080962D01*
X0114777Y0080962D01*
X0108277Y0074462D01*
X0108577Y0073962D01*
X0108577Y0055062D01*
X0108277Y0054462D01*
X0098677Y0055062D02*
X0098277Y0054462D01*
X0098677Y0055062D02*
X0098677Y0073962D01*
X0098277Y0074462D01*
X0098777Y0074962D01*
X0102277Y0074962D01*
X0110277Y0082962D01*
X0128277Y0082962D01*
X0131761Y0086446D01*
X0131761Y0090190D01*
X0131761Y0096478D01*
X0131277Y0096962D01*
X0136880Y0096564D02*
X0136880Y0090190D01*
X0136880Y0081564D01*
X0136277Y0080962D01*
X0132277Y0080962D01*
X0129777Y0078462D01*
X0122277Y0078462D01*
X0118277Y0074462D01*
X0118477Y0073962D01*
X0118477Y0055062D01*
X0118277Y0054462D01*
X0128277Y0054462D02*
X0128377Y0055062D01*
X0128377Y0073962D01*
X0128277Y0074462D01*
X0132777Y0078962D01*
X0138277Y0078962D01*
X0139439Y0080123D01*
X0139439Y0090190D01*
X0141998Y0090190D02*
X0141998Y0078182D01*
X0138277Y0074462D01*
X0138277Y0054462D01*
X0148177Y0055062D02*
X0148277Y0054462D01*
X0148177Y0055062D02*
X0148177Y0073962D01*
X0148277Y0074462D01*
X0144557Y0078182D01*
X0144557Y0090190D01*
X0147116Y0090190D02*
X0147116Y0080623D01*
X0148277Y0079462D01*
X0150777Y0079462D01*
X0155777Y0074462D01*
X0158277Y0074462D01*
X0158977Y0073962D01*
X0158977Y0055062D01*
X0158277Y0054462D01*
X0168277Y0054462D02*
X0168877Y0055062D01*
X0168877Y0073962D01*
X0168277Y0074462D01*
X0163277Y0079462D01*
X0153277Y0079462D01*
X0149675Y0083064D01*
X0149675Y0090190D01*
X0149675Y0095360D01*
X0152277Y0097962D01*
X0153277Y0094962D02*
X0152234Y0093919D01*
X0152234Y0090190D01*
X0152234Y0083005D01*
X0153277Y0081962D01*
X0168277Y0081962D01*
X0175777Y0074462D01*
X0178277Y0074462D01*
X0178777Y0073962D01*
X0178777Y0055062D01*
X0178277Y0054462D01*
X0188277Y0054462D02*
X0188677Y0055062D01*
X0188677Y0073962D01*
X0188277Y0074462D01*
X0183777Y0078962D01*
X0174277Y0078962D01*
X0169277Y0083962D01*
X0155277Y0083962D01*
X0154793Y0084446D01*
X0154793Y0090190D01*
X0157352Y0090190D02*
X0157352Y0086887D01*
X0158277Y0085962D01*
X0170277Y0085962D01*
X0175277Y0080962D01*
X0191777Y0080962D01*
X0198277Y0074462D01*
X0198577Y0073962D01*
X0198577Y0055062D01*
X0198277Y0054462D01*
X0208277Y0054462D02*
X0208477Y0055062D01*
X0208477Y0073962D01*
X0208277Y0074462D01*
X0204777Y0074462D01*
X0196277Y0082962D01*
X0176277Y0082962D01*
X0171277Y0087962D01*
X0159911Y0087962D01*
X0159911Y0090190D01*
X0158277Y0095962D02*
X0156277Y0095962D01*
X0155277Y0094962D01*
X0153277Y0094962D01*
X0158277Y0095962D02*
X0160277Y0097962D01*
X0137277Y0096962D02*
X0136880Y0096564D01*
X0129202Y0090190D02*
X0129202Y0086887D01*
X0127277Y0084962D01*
X0115277Y0084962D01*
X0115277Y0089962D01*
X0117277Y0092962D02*
X0119277Y0090962D01*
X0125872Y0090962D01*
X0126643Y0090190D01*
X0117277Y0092962D02*
X0112277Y0092962D01*
X0106277Y0086962D01*
X0090777Y0086962D01*
X0078277Y0074462D01*
X0078877Y0073962D01*
X0078877Y0055062D01*
X0078277Y0054462D01*
X0088277Y0054462D02*
X0088777Y0055062D01*
X0088777Y0073962D01*
X0088277Y0074462D01*
X0098777Y0084962D01*
X0115277Y0084962D01*
X0154793Y0118734D02*
X0154793Y0124478D01*
X0156277Y0125962D01*
X0166277Y0125962D01*
X0168277Y0127962D01*
X0181777Y0127962D01*
X0188277Y0134462D01*
X0188677Y0135162D01*
X0188677Y0148662D01*
X0188277Y0149462D01*
X0186376Y0164462D02*
X0186877Y0164862D01*
X0200377Y0164862D01*
X0200777Y0164462D01*
X0198277Y0179462D02*
X0198577Y0180162D01*
X0198577Y0193662D01*
X0198277Y0194462D01*
X0188677Y0193662D02*
X0188277Y0194462D01*
X0188677Y0193662D02*
X0188677Y0180162D01*
X0188277Y0179462D01*
X0178777Y0180162D02*
X0178277Y0179462D01*
X0178777Y0180162D02*
X0178777Y0193662D01*
X0178277Y0194462D01*
X0168877Y0193662D02*
X0168277Y0194462D01*
X0168877Y0193662D02*
X0168877Y0180162D01*
X0168277Y0179462D01*
X0158977Y0180162D02*
X0158277Y0179462D01*
X0158977Y0180162D02*
X0158977Y0193662D01*
X0158277Y0194462D01*
X0148277Y0194462D02*
X0148177Y0193662D01*
X0148177Y0180162D01*
X0148277Y0179462D01*
X0138277Y0179462D02*
X0138277Y0194462D01*
X0128377Y0193662D02*
X0128277Y0194462D01*
X0128377Y0193662D02*
X0128377Y0180162D01*
X0128277Y0179462D01*
X0118477Y0180162D02*
X0118277Y0179462D01*
X0118477Y0180162D02*
X0118477Y0193662D01*
X0118277Y0194462D01*
X0108577Y0193662D02*
X0108277Y0194462D01*
X0108577Y0193662D02*
X0108577Y0180162D01*
X0108277Y0179462D01*
X0098677Y0180162D02*
X0098277Y0179462D01*
X0098677Y0180162D02*
X0098677Y0193662D01*
X0098277Y0194462D01*
X0088777Y0193662D02*
X0088277Y0194462D01*
X0088777Y0193662D02*
X0088777Y0180162D01*
X0088277Y0179462D01*
X0078877Y0180162D02*
X0078277Y0179462D01*
X0078877Y0180162D02*
X0078877Y0193662D01*
X0078277Y0194462D01*
X0058277Y0193930D02*
X0058177Y0193662D01*
X0053677Y0189162D01*
X0046477Y0189162D01*
X0041977Y0193662D01*
X0026677Y0193662D01*
X0026072Y0193930D01*
X0024877Y0199062D02*
X0043777Y0199062D01*
X0048277Y0194562D01*
X0048277Y0193930D01*
X0044677Y0188262D02*
X0048277Y0184662D01*
X0048277Y0183930D01*
X0044677Y0188262D02*
X0023977Y0188262D01*
X0020377Y0184662D01*
X0016777Y0184662D01*
X0016072Y0183930D01*
X0023977Y0178362D02*
X0044677Y0178362D01*
X0048277Y0174762D01*
X0048277Y0173930D01*
X0048277Y0163930D02*
X0048277Y0163062D01*
X0044677Y0159462D01*
X0023977Y0159462D01*
X0020377Y0163062D01*
X0016777Y0163062D01*
X0016072Y0163930D01*
X0016072Y0173930D02*
X0016777Y0174762D01*
X0020377Y0174762D01*
X0023977Y0178362D01*
X0020377Y0194562D02*
X0016777Y0194562D01*
X0016072Y0193930D01*
X0020377Y0194562D02*
X0024877Y0199062D01*
X0025777Y0203562D02*
X0026072Y0203930D01*
X0026677Y0203562D01*
X0048277Y0203562D01*
X0048277Y0203930D01*
X0048277Y0203562D02*
X0058177Y0203562D01*
X0058277Y0203930D01*
X0025777Y0203562D02*
X0016777Y0203562D01*
X0016072Y0203930D01*
X0058277Y0153930D02*
X0059077Y0153162D01*
X0059077Y0149562D01*
X0062677Y0145962D01*
X0062677Y0108162D01*
X0059077Y0104562D01*
X0058277Y0103930D01*
X0058177Y0103662D01*
X0058177Y0094662D01*
X0058277Y0093930D01*
X0058277Y0083930D02*
X0058177Y0083862D01*
X0058177Y0079362D01*
X0046477Y0079362D01*
X0041977Y0083862D01*
X0026677Y0083862D01*
X0026072Y0083930D01*
X0023977Y0088362D02*
X0044677Y0088362D01*
X0048277Y0084762D01*
X0048277Y0083930D01*
X0058177Y0079362D02*
X0058177Y0073962D01*
X0058277Y0073930D01*
X0048277Y0073930D02*
X0048277Y0073062D01*
X0044677Y0069462D01*
X0023977Y0069462D01*
X0020377Y0073062D01*
X0016777Y0073062D01*
X0016072Y0073930D01*
X0026072Y0063930D02*
X0026677Y0063162D01*
X0042877Y0063162D01*
X0046477Y0059562D01*
X0054577Y0059562D01*
X0058177Y0063162D01*
X0058277Y0063930D01*
X0048277Y0053930D02*
X0048277Y0053262D01*
X0043777Y0048762D01*
X0024877Y0048762D01*
X0020377Y0053262D01*
X0016777Y0053262D01*
X0016072Y0053930D01*
X0026072Y0043930D02*
X0026677Y0044262D01*
X0041977Y0044262D01*
X0046477Y0048762D01*
X0053677Y0048762D01*
X0058177Y0044262D01*
X0058277Y0043930D01*
X0048277Y0034362D02*
X0048277Y0033930D01*
X0048277Y0034362D02*
X0043777Y0038862D01*
X0024877Y0038862D01*
X0020377Y0034362D01*
X0016777Y0034362D01*
X0016072Y0033930D01*
X0024877Y0028962D02*
X0043777Y0028962D01*
X0048277Y0024462D01*
X0048277Y0023930D01*
X0046477Y0019062D02*
X0053677Y0019062D01*
X0058177Y0023562D01*
X0058277Y0023930D01*
X0058277Y0013930D02*
X0058177Y0013662D01*
X0053677Y0009162D01*
X0046477Y0009162D01*
X0041977Y0013662D01*
X0026677Y0013662D01*
X0026072Y0013930D01*
X0024877Y0019062D02*
X0043777Y0019062D01*
X0048277Y0014562D01*
X0048277Y0013930D01*
X0046477Y0019062D02*
X0041977Y0023562D01*
X0026677Y0023562D01*
X0026072Y0023930D01*
X0024877Y0019062D02*
X0020377Y0014562D01*
X0016777Y0014562D01*
X0016072Y0013930D01*
X0016072Y0023930D02*
X0016777Y0024462D01*
X0020377Y0024462D01*
X0024877Y0028962D01*
X0077977Y0024462D02*
X0077977Y0014562D01*
X0078277Y0014462D01*
X0078277Y0024462D02*
X0077977Y0024462D01*
X0077977Y0034362D01*
X0078277Y0034462D01*
X0023977Y0088362D02*
X0020377Y0084762D01*
X0016777Y0084762D01*
X0016072Y0083930D01*
X0026072Y0093930D02*
X0025777Y0094662D01*
X0025777Y0103662D01*
X0026072Y0103930D01*
X0026677Y0103662D01*
X0048277Y0103662D01*
X0048277Y0103930D01*
X0048277Y0103662D02*
X0058177Y0103662D01*
X0053677Y0109062D02*
X0058177Y0113562D01*
X0058277Y0113930D01*
X0053677Y0109062D02*
X0046477Y0109062D01*
X0041977Y0113562D01*
X0026677Y0113562D01*
X0026072Y0113930D01*
X0024877Y0118962D02*
X0020377Y0114462D01*
X0016777Y0114462D01*
X0016072Y0113930D01*
X0024877Y0118962D02*
X0043777Y0118962D01*
X0048277Y0114462D01*
X0048277Y0113930D01*
X0048277Y0123930D02*
X0048277Y0124362D01*
X0043777Y0128862D01*
X0024877Y0128862D01*
X0020377Y0124362D01*
X0016777Y0124362D01*
X0016072Y0123930D01*
X0026072Y0133930D02*
X0026677Y0133362D01*
X0041977Y0133362D01*
X0046477Y0128862D01*
X0053677Y0128862D01*
X0058177Y0133362D01*
X0058277Y0133930D01*
X0048277Y0133930D02*
X0048277Y0134262D01*
X0043777Y0138762D01*
X0023977Y0138762D01*
X0019477Y0134262D01*
X0016777Y0134262D01*
X0016072Y0133930D01*
X0026072Y0143930D02*
X0026677Y0144162D01*
X0041977Y0144162D01*
X0046477Y0148662D01*
X0053677Y0148662D01*
X0058177Y0144162D01*
X0058277Y0143930D01*
X0083277Y0164462D02*
X0083377Y0164862D01*
X0095077Y0164862D01*
X0095179Y0164462D01*
X0106376Y0164462D02*
X0106777Y0164862D01*
X0120277Y0164862D01*
X0120777Y0164462D01*
X0121177Y0164862D01*
X0134677Y0164862D01*
X0135179Y0164462D01*
X0146376Y0164462D02*
X0146377Y0164862D01*
X0160777Y0164862D01*
X0160777Y0164462D01*
X0160777Y0164862D02*
X0175177Y0164862D01*
X0175179Y0164462D01*
X0208277Y0179462D02*
X0208477Y0180162D01*
X0208477Y0193662D01*
X0208277Y0194462D01*
X0223277Y0193930D02*
X0223777Y0193662D01*
X0227377Y0193662D01*
X0231877Y0189162D01*
X0250777Y0189162D01*
X0255277Y0193662D01*
X0256072Y0193930D01*
X0253477Y0188262D02*
X0261577Y0188262D01*
X0265177Y0184662D01*
X0266072Y0183930D01*
X0261577Y0178362D02*
X0265177Y0174762D01*
X0266072Y0173930D01*
X0261577Y0178362D02*
X0254377Y0178362D01*
X0250777Y0174762D01*
X0233677Y0174762D01*
X0233277Y0173930D01*
X0233277Y0183930D02*
X0233677Y0184662D01*
X0249877Y0184662D01*
X0253477Y0188262D01*
X0255277Y0203562D02*
X0233677Y0203562D01*
X0233277Y0203930D01*
X0232777Y0203562D01*
X0223777Y0203562D01*
X0223277Y0203930D01*
X0255277Y0203562D02*
X0256072Y0203930D01*
X0256177Y0203562D01*
X0265177Y0203562D01*
X0266072Y0203930D01*
X0256072Y0163930D02*
X0255277Y0163062D01*
X0251677Y0159462D01*
X0230977Y0159462D01*
X0227377Y0163062D01*
X0223777Y0163062D01*
X0223277Y0163930D01*
X0233677Y0144162D02*
X0233277Y0143930D01*
X0233677Y0144162D02*
X0249877Y0144162D01*
X0254377Y0148662D01*
X0260677Y0148662D01*
X0265177Y0144162D01*
X0266072Y0143930D01*
X0256072Y0133930D02*
X0255277Y0134262D01*
X0250777Y0138762D01*
X0231877Y0138762D01*
X0227377Y0134262D01*
X0223777Y0134262D01*
X0223277Y0133930D01*
X0233677Y0124362D02*
X0233277Y0123930D01*
X0233677Y0124362D02*
X0249877Y0124362D01*
X0254377Y0128862D01*
X0260677Y0128862D01*
X0265177Y0124362D01*
X0266072Y0123930D01*
X0256072Y0113930D02*
X0255277Y0113562D01*
X0250777Y0109062D01*
X0231877Y0109062D01*
X0227377Y0113562D01*
X0223777Y0113562D01*
X0223277Y0113930D01*
X0223277Y0103930D02*
X0223777Y0103662D01*
X0227377Y0103662D01*
X0231877Y0099162D01*
X0250777Y0099162D01*
X0255277Y0103662D01*
X0256072Y0103930D01*
X0253477Y0098262D02*
X0261577Y0098262D01*
X0265177Y0094662D01*
X0266072Y0093930D01*
X0261577Y0088362D02*
X0265177Y0084762D01*
X0266072Y0083930D01*
X0261577Y0088362D02*
X0254377Y0088362D01*
X0250777Y0084762D01*
X0233677Y0084762D01*
X0233277Y0083930D01*
X0233277Y0093930D02*
X0233677Y0094662D01*
X0249877Y0094662D01*
X0253477Y0098262D01*
X0256072Y0073930D02*
X0255277Y0073062D01*
X0251677Y0069462D01*
X0230977Y0069462D01*
X0227377Y0073062D01*
X0223777Y0073062D01*
X0223277Y0073930D01*
X0223277Y0063930D02*
X0223777Y0063162D01*
X0227377Y0063162D01*
X0230977Y0059562D01*
X0251677Y0059562D01*
X0255277Y0063162D01*
X0256072Y0063930D01*
X0254377Y0058662D02*
X0260677Y0058662D01*
X0265177Y0054162D01*
X0266072Y0053930D01*
X0256072Y0043930D02*
X0255277Y0044262D01*
X0250777Y0048762D01*
X0231877Y0048762D01*
X0227377Y0044262D01*
X0223777Y0044262D01*
X0223277Y0043930D01*
X0231877Y0038862D02*
X0250777Y0038862D01*
X0255277Y0034362D01*
X0256072Y0033930D01*
X0254377Y0028962D02*
X0260677Y0028962D01*
X0265177Y0033462D01*
X0266072Y0033930D01*
X0266072Y0023930D02*
X0266077Y0023562D01*
X0266077Y0014562D01*
X0266072Y0013930D01*
X0256072Y0013930D02*
X0255277Y0013662D01*
X0250777Y0009162D01*
X0231877Y0009162D01*
X0227377Y0013662D01*
X0223777Y0013662D01*
X0223277Y0013930D01*
X0233277Y0013930D02*
X0233677Y0014562D01*
X0233677Y0023562D01*
X0233277Y0023930D01*
X0233677Y0033462D02*
X0233277Y0033930D01*
X0233677Y0033462D02*
X0249877Y0033462D01*
X0254377Y0028962D01*
X0231877Y0038862D02*
X0227377Y0034362D01*
X0223777Y0034362D01*
X0223277Y0033930D01*
X0233277Y0053930D02*
X0233677Y0054162D01*
X0249877Y0054162D01*
X0254377Y0058662D01*
X0121777Y0134462D02*
X0118277Y0134462D01*
X0118477Y0135162D01*
X0118477Y0148662D01*
X0118277Y0149462D01*
X0025777Y0103662D02*
X0016777Y0103662D01*
X0016072Y0103930D01*
D19*
X0115277Y0089962D03*
X0131277Y0096962D03*
X0134277Y0100962D03*
X0137277Y0096962D03*
X0152277Y0097962D03*
X0160277Y0097962D03*
X0160277Y0109962D03*
X0166277Y0112962D03*
X0171277Y0118962D03*
X0150277Y0109962D03*
X0139277Y0110962D03*
X0134277Y0110962D03*
X0120277Y0111962D03*
X0115277Y0118962D03*
D20*
X0160777Y0036962D02*
X0167027Y0030712D01*
X0167027Y0027587D01*
X0167037Y0027080D01*
X0170777Y0027080D02*
X0170777Y0036962D01*
X0174527Y0030712D02*
X0180777Y0036962D01*
X0174527Y0030712D02*
X0174527Y0027587D01*
X0174517Y0027080D01*
X0174517Y0016844D02*
X0174527Y0016337D01*
X0174527Y0013212D01*
X0178277Y0009462D01*
X0167027Y0013212D02*
X0163277Y0009462D01*
X0167027Y0013212D02*
X0167027Y0016337D01*
X0167037Y0016844D01*
X0190777Y0036962D02*
X0191077Y0036762D01*
X0197077Y0030762D01*
X0197077Y0027162D01*
X0197537Y0027080D01*
X0201277Y0027080D02*
X0201277Y0036762D01*
X0200777Y0036962D01*
X0205477Y0031962D02*
X0210277Y0036762D01*
X0210777Y0036962D01*
X0205477Y0031962D02*
X0205477Y0027162D01*
X0205017Y0027080D01*
X0205017Y0016844D02*
X0205477Y0016362D01*
X0205477Y0012162D01*
X0207877Y0009762D01*
X0208277Y0009462D01*
X0197077Y0013362D02*
X0193477Y0009762D01*
X0193277Y0009462D01*
X0197077Y0013362D02*
X0197077Y0016362D01*
X0197537Y0016844D01*
X0223277Y0153930D02*
X0223277Y0154462D01*
X0233277Y0154462D01*
X0233277Y0153930D01*
X0233277Y0154462D02*
X0255777Y0154462D01*
X0256072Y0153930D01*
M02*
