%
M48
M72
T01C0.01969
T02C0.03200
T03C0.04000
%
T01
X115277Y89962
X131277Y96962
X134277Y100962
X137277Y96962
X152277Y97962
X160277Y97962
X160277Y109962
X166277Y112962
X171277Y118962
X150277Y109962
X139277Y110962
X134277Y110962
X120277Y111962
X115277Y118962
T02
X118277Y134462
X128277Y134462
X138277Y134462
X148277Y134462
X158277Y134462
X168277Y134462
X178277Y134462
X188277Y134462
X198277Y134462
X208277Y134462
X208277Y149462
X198277Y149462
X188277Y149462
X178277Y149462
X168277Y149462
X158277Y149462
X148277Y149462
X138277Y149462
X128277Y149462
X118277Y149462
X108277Y149462
X98277Y149462
X88277Y149462
X78277Y149462
X78277Y134462
X88277Y134462
X98277Y134462
X108277Y134462
X108277Y179462
X98277Y179462
X88277Y179462
X78277Y179462
X118277Y179462
X128277Y179462
X138277Y179462
X148277Y179462
X158277Y179462
X168277Y179462
X178277Y179462
X188277Y179462
X198277Y179462
X208277Y179462
X208277Y74462
X198277Y74462
X188277Y74462
X178277Y74462
X168277Y74462
X158277Y74462
X148277Y74462
X138277Y74462
X128277Y74462
X118277Y74462
X108277Y74462
X98277Y74462
X88277Y74462
X78277Y74462
T03
X16072Y13930
X16072Y23930
X26072Y23930
X26072Y13930
X48277Y13930
X58277Y13930
X58277Y23930
X48277Y23930
X48277Y33930
X58277Y33930
X58277Y43930
X48277Y43930
X48277Y53930
X58277Y53930
X58277Y63930
X48277Y63930
X48277Y73930
X58277Y73930
X58277Y83930
X48277Y83930
X48277Y93930
X58277Y93930
X58277Y103930
X48277Y103930
X48277Y113930
X58277Y113930
X58277Y123930
X48277Y123930
X48277Y133930
X58277Y133930
X58277Y143930
X48277Y143930
X48277Y153930
X58277Y153930
X58277Y163930
X48277Y163930
X48277Y173930
X58277Y173930
X58277Y183930
X48277Y183930
X48277Y193930
X58277Y193930
X58277Y203930
X48277Y203930
X26072Y203930
X16072Y203930
X16072Y193930
X26072Y193930
X26072Y183930
X16072Y183930
X16072Y173930
X26072Y173930
X26072Y163930
X16072Y163930
X16072Y153930
X26072Y153930
X26072Y143930
X16072Y143930
X16072Y133930
X26072Y133930
X26072Y123930
X16072Y123930
X16072Y113930
X16072Y103930
X26072Y103930
X26072Y113930
X26072Y93930
X16072Y93930
X16072Y83930
X26072Y83930
X26072Y73930
X16072Y73930
X16072Y63930
X26072Y63930
X26072Y53930
X16072Y53930
X16072Y43930
X26072Y43930
X26072Y33930
X16072Y33930
X78277Y34462
X78277Y24462
X78277Y14462
X78277Y54462
X88277Y54462
X98277Y54462
X108277Y54462
X118277Y54462
X128277Y54462
X138277Y54462
X148277Y54462
X158277Y54462
X168277Y54462
X178277Y54462
X188277Y54462
X198277Y54462
X208277Y54462
X223277Y53930
X223277Y43930
X233277Y43930
X233277Y53930
X233277Y63930
X223277Y63930
X223277Y73930
X233277Y73930
X233277Y83930
X223277Y83930
X223277Y93930
X233277Y93930
X233277Y103930
X223277Y103930
X223277Y113930
X233277Y113930
X233277Y123930
X223277Y123930
X223277Y133930
X233277Y133930
X233277Y143930
X223277Y143930
X223277Y153930
X233277Y153930
X233277Y163930
X223277Y163930
X223277Y173930
X233277Y173930
X233277Y183930
X223277Y183930
X223277Y193930
X233277Y193930
X233277Y203930
X223277Y203930
X208277Y194462
X198277Y194462
X188277Y194462
X178277Y194462
X168277Y194462
X158277Y194462
X148277Y194462
X138277Y194462
X128277Y194462
X118277Y194462
X108277Y194462
X98277Y194462
X88277Y194462
X78277Y194462
X256072Y193930
X256072Y203930
X266072Y203930
X266072Y193930
X266072Y183930
X256072Y183930
X256072Y173930
X266072Y173930
X266072Y163930
X256072Y163930
X256072Y153930
X266072Y153930
X266072Y143930
X256072Y143930
X256072Y133930
X266072Y133930
X266072Y123930
X256072Y123930
X256072Y113930
X256072Y103930
X266072Y103930
X266072Y113930
X266072Y93930
X256072Y93930
X256072Y83930
X266072Y83930
X266072Y73930
X256072Y73930
X256072Y63930
X266072Y63930
X266072Y53930
X256072Y53930
X256072Y43930
X266072Y43930
X266072Y33930
X256072Y33930
X256072Y23930
X256072Y13930
X266072Y13930
X266072Y23930
X233277Y23930
X233277Y13930
X223277Y13930
X223277Y23930
X223277Y33930
X233277Y33930
X148277Y34462
X138277Y34462
X138277Y24462
X148277Y24462
X148277Y14462
X138277Y14462
M30
