G75*
%MOIN*%
%OFA0B0*%
%FSLAX25Y25*%
%IPPOS*%
%LPD*%
%AMOC8*
5,1,8,0,0,1.08239X$1,22.5*
%
%ADD10C,0.00000*%
%ADD11C,0.00600*%
%ADD12C,0.00300*%
%ADD13C,0.00500*%
%ADD14C,0.06600*%
%ADD15C,0.00200*%
%ADD16C,0.01600*%
%ADD17C,0.00800*%
D10*
X0003277Y0001962D02*
X0003277Y0218497D01*
X0278868Y0218497D01*
X0278868Y0001962D01*
X0003277Y0001962D01*
D11*
X0011072Y0011430D02*
X0013572Y0008930D01*
X0028572Y0008930D01*
X0031072Y0011430D01*
X0031072Y0016430D01*
X0028572Y0018930D01*
X0013572Y0018930D01*
X0011072Y0016430D01*
X0011072Y0011430D01*
X0013572Y0018930D02*
X0011072Y0021430D01*
X0011072Y0026430D01*
X0013572Y0028930D01*
X0028572Y0028930D01*
X0031072Y0026430D01*
X0031072Y0021430D01*
X0028572Y0018930D01*
X0028572Y0028930D02*
X0031072Y0031430D01*
X0031072Y0036430D01*
X0028572Y0038930D01*
X0013572Y0038930D01*
X0011072Y0041430D01*
X0011072Y0046430D01*
X0013572Y0048930D01*
X0028572Y0048930D01*
X0031072Y0046430D01*
X0031072Y0041430D01*
X0028572Y0038930D01*
X0028572Y0048930D02*
X0031072Y0051430D01*
X0031072Y0056430D01*
X0028572Y0058930D01*
X0013572Y0058930D01*
X0011072Y0061430D01*
X0011072Y0066430D01*
X0013572Y0068930D01*
X0028572Y0068930D01*
X0031072Y0066430D01*
X0031072Y0061430D01*
X0028572Y0058930D01*
X0028572Y0068930D02*
X0031072Y0071430D01*
X0031072Y0076430D01*
X0028572Y0078930D01*
X0013572Y0078930D01*
X0011072Y0081430D01*
X0011072Y0086430D01*
X0013572Y0088930D01*
X0028572Y0088930D01*
X0031072Y0086430D01*
X0031072Y0081430D01*
X0028572Y0078930D01*
X0028572Y0088930D02*
X0031072Y0091430D01*
X0031072Y0096430D01*
X0028572Y0098930D01*
X0013572Y0098930D01*
X0011072Y0101430D01*
X0011072Y0106430D01*
X0013572Y0108930D01*
X0028572Y0108930D01*
X0031072Y0106430D01*
X0031072Y0101430D01*
X0028572Y0098930D01*
X0028572Y0108930D02*
X0031072Y0111430D01*
X0031072Y0116430D01*
X0028572Y0118930D01*
X0013572Y0118930D01*
X0011072Y0121430D01*
X0011072Y0126430D01*
X0013572Y0128930D01*
X0028572Y0128930D01*
X0031072Y0126430D01*
X0031072Y0121430D01*
X0028572Y0118930D01*
X0028572Y0128930D02*
X0031072Y0131430D01*
X0031072Y0136430D01*
X0028572Y0138930D01*
X0013572Y0138930D01*
X0011072Y0141430D01*
X0011072Y0146430D01*
X0013572Y0148930D01*
X0028572Y0148930D01*
X0031072Y0146430D01*
X0031072Y0141430D01*
X0028572Y0138930D01*
X0028572Y0148930D02*
X0031072Y0151430D01*
X0031072Y0156430D01*
X0028572Y0158930D01*
X0013572Y0158930D01*
X0011072Y0156430D01*
X0011072Y0151430D01*
X0013572Y0148930D01*
X0013572Y0138930D02*
X0011072Y0136430D01*
X0011072Y0131430D01*
X0013572Y0128930D01*
X0013572Y0118930D02*
X0011072Y0116430D01*
X0011072Y0111430D01*
X0013572Y0108930D01*
X0013572Y0098930D02*
X0011072Y0096430D01*
X0011072Y0091430D01*
X0013572Y0088930D01*
X0013572Y0078930D02*
X0011072Y0076430D01*
X0011072Y0071430D01*
X0013572Y0068930D01*
X0013572Y0058930D02*
X0011072Y0056430D01*
X0011072Y0051430D01*
X0013572Y0048930D01*
X0013572Y0038930D02*
X0011072Y0036430D01*
X0011072Y0031430D01*
X0013572Y0028930D01*
X0043277Y0026430D02*
X0043277Y0021430D01*
X0045777Y0018930D01*
X0043277Y0016430D01*
X0043277Y0011430D01*
X0045777Y0008930D01*
X0060777Y0008930D01*
X0063277Y0011430D01*
X0063277Y0016430D01*
X0060777Y0018930D01*
X0045777Y0018930D01*
X0043277Y0026430D02*
X0045777Y0028930D01*
X0060777Y0028930D01*
X0063277Y0026430D01*
X0063277Y0021430D01*
X0060777Y0018930D01*
X0060777Y0028930D02*
X0063277Y0031430D01*
X0063277Y0036430D01*
X0060777Y0038930D01*
X0045777Y0038930D01*
X0043277Y0041430D01*
X0043277Y0046430D01*
X0045777Y0048930D01*
X0060777Y0048930D01*
X0063277Y0046430D01*
X0063277Y0041430D01*
X0060777Y0038930D01*
X0060777Y0048930D02*
X0063277Y0051430D01*
X0063277Y0056430D01*
X0060777Y0058930D01*
X0045777Y0058930D01*
X0043277Y0061430D01*
X0043277Y0066430D01*
X0045777Y0068930D01*
X0060777Y0068930D01*
X0063277Y0066430D01*
X0063277Y0061430D01*
X0060777Y0058930D01*
X0060777Y0068930D02*
X0063277Y0071430D01*
X0063277Y0076430D01*
X0060777Y0078930D01*
X0045777Y0078930D01*
X0043277Y0081430D01*
X0043277Y0086430D01*
X0045777Y0088930D01*
X0060777Y0088930D01*
X0063277Y0086430D01*
X0063277Y0081430D01*
X0060777Y0078930D01*
X0060777Y0088930D02*
X0063277Y0091430D01*
X0063277Y0096430D01*
X0060777Y0098930D01*
X0045777Y0098930D01*
X0043277Y0101430D01*
X0043277Y0106430D01*
X0045777Y0108930D01*
X0060777Y0108930D01*
X0063277Y0106430D01*
X0063277Y0101430D01*
X0060777Y0098930D01*
X0060777Y0108930D02*
X0063277Y0111430D01*
X0063277Y0116430D01*
X0060777Y0118930D01*
X0045777Y0118930D01*
X0043277Y0121430D01*
X0043277Y0126430D01*
X0045777Y0128930D01*
X0060777Y0128930D01*
X0063277Y0126430D01*
X0063277Y0121430D01*
X0060777Y0118930D01*
X0060777Y0128930D02*
X0063277Y0131430D01*
X0063277Y0136430D01*
X0060777Y0138930D01*
X0045777Y0138930D01*
X0043277Y0141430D01*
X0043277Y0146430D01*
X0045777Y0148930D01*
X0060777Y0148930D01*
X0063277Y0146430D01*
X0063277Y0141430D01*
X0060777Y0138930D01*
X0060777Y0148930D02*
X0063277Y0151430D01*
X0063277Y0156430D01*
X0060777Y0158930D01*
X0045777Y0158930D01*
X0043277Y0156430D01*
X0043277Y0151430D01*
X0045777Y0148930D01*
X0045777Y0138930D02*
X0043277Y0136430D01*
X0043277Y0131430D01*
X0045777Y0128930D01*
X0045777Y0118930D02*
X0043277Y0116430D01*
X0043277Y0111430D01*
X0045777Y0108930D01*
X0045777Y0098930D02*
X0043277Y0096430D01*
X0043277Y0091430D01*
X0045777Y0088930D01*
X0045777Y0078930D02*
X0043277Y0076430D01*
X0043277Y0071430D01*
X0045777Y0068930D01*
X0045777Y0058930D02*
X0043277Y0056430D01*
X0043277Y0051430D01*
X0045777Y0048930D01*
X0045777Y0038930D02*
X0043277Y0036430D01*
X0043277Y0031430D01*
X0045777Y0028930D01*
X0073277Y0026962D02*
X0073277Y0021962D01*
X0075777Y0019462D01*
X0080777Y0019462D01*
X0083277Y0021962D01*
X0083277Y0026962D01*
X0080777Y0029462D01*
X0083277Y0031962D01*
X0083277Y0036962D01*
X0080777Y0039462D01*
X0075777Y0039462D01*
X0073277Y0036962D01*
X0073277Y0031962D01*
X0075777Y0029462D01*
X0080777Y0029462D01*
X0075777Y0029462D02*
X0073277Y0026962D01*
X0075777Y0019462D02*
X0073277Y0016962D01*
X0073277Y0011962D01*
X0075777Y0009462D01*
X0080777Y0009462D01*
X0083277Y0011962D01*
X0083277Y0016962D01*
X0080777Y0019462D01*
X0080777Y0049462D02*
X0075777Y0049462D01*
X0073277Y0051962D01*
X0073277Y0056962D01*
X0075777Y0059462D01*
X0080777Y0059462D01*
X0083277Y0056962D01*
X0085777Y0059462D01*
X0090777Y0059462D01*
X0093277Y0056962D01*
X0093277Y0051962D01*
X0090777Y0049462D01*
X0085777Y0049462D01*
X0083277Y0051962D01*
X0080777Y0049462D01*
X0083277Y0051962D02*
X0083277Y0056962D01*
X0093277Y0056962D02*
X0095777Y0059462D01*
X0100777Y0059462D01*
X0103277Y0056962D01*
X0105777Y0059462D01*
X0110777Y0059462D01*
X0113277Y0056962D01*
X0115777Y0059462D01*
X0120777Y0059462D01*
X0123277Y0056962D01*
X0123277Y0051962D01*
X0120777Y0049462D01*
X0115777Y0049462D01*
X0113277Y0051962D01*
X0110777Y0049462D01*
X0105777Y0049462D01*
X0103277Y0051962D01*
X0100777Y0049462D01*
X0095777Y0049462D01*
X0093277Y0051962D01*
X0103277Y0051962D02*
X0103277Y0056962D01*
X0113277Y0056962D02*
X0113277Y0051962D01*
X0123277Y0051962D02*
X0125777Y0049462D01*
X0130777Y0049462D01*
X0133277Y0051962D01*
X0135777Y0049462D01*
X0140777Y0049462D01*
X0143277Y0051962D01*
X0145777Y0049462D01*
X0150777Y0049462D01*
X0153277Y0051962D01*
X0153277Y0056962D01*
X0150777Y0059462D01*
X0145777Y0059462D01*
X0143277Y0056962D01*
X0143277Y0051962D01*
X0143277Y0056962D02*
X0140777Y0059462D01*
X0135777Y0059462D01*
X0133277Y0056962D01*
X0133277Y0051962D01*
X0133277Y0056962D02*
X0130777Y0059462D01*
X0125777Y0059462D01*
X0123277Y0056962D01*
X0135777Y0039462D02*
X0150777Y0039462D01*
X0153277Y0036962D01*
X0153277Y0031962D01*
X0150777Y0029462D01*
X0135777Y0029462D01*
X0133277Y0031962D01*
X0133277Y0036962D01*
X0135777Y0039462D01*
X0135777Y0029462D02*
X0133277Y0026962D01*
X0133277Y0021962D01*
X0135777Y0019462D01*
X0150777Y0019462D01*
X0153277Y0021962D01*
X0153277Y0026962D01*
X0150777Y0029462D01*
X0150777Y0019462D02*
X0153277Y0016962D01*
X0153277Y0011962D01*
X0150777Y0009462D01*
X0135777Y0009462D01*
X0133277Y0011962D01*
X0133277Y0016962D01*
X0135777Y0019462D01*
X0165179Y0018871D02*
X0165549Y0018871D01*
X0165179Y0018871D02*
X0165179Y0025052D01*
X0165549Y0025052D01*
X0168722Y0025052D02*
X0169092Y0025052D01*
X0172462Y0025052D02*
X0172832Y0025052D01*
X0176006Y0025052D02*
X0176376Y0025052D01*
X0176376Y0018871D01*
X0176006Y0018871D01*
X0172832Y0018871D02*
X0168722Y0018871D01*
X0195679Y0018871D02*
X0196049Y0018871D01*
X0195679Y0018871D02*
X0195679Y0025052D01*
X0196049Y0025052D01*
X0199222Y0025052D02*
X0199592Y0025052D01*
X0202962Y0025052D02*
X0203332Y0025052D01*
X0206506Y0025052D02*
X0206876Y0025052D01*
X0206876Y0018871D01*
X0206506Y0018871D01*
X0203332Y0018871D02*
X0199222Y0018871D01*
X0218277Y0016430D02*
X0218277Y0011430D01*
X0220777Y0008930D01*
X0235777Y0008930D01*
X0238277Y0011430D01*
X0238277Y0016430D01*
X0235777Y0018930D01*
X0220777Y0018930D01*
X0218277Y0016430D01*
X0220777Y0018930D02*
X0218277Y0021430D01*
X0218277Y0026430D01*
X0220777Y0028930D01*
X0235777Y0028930D01*
X0238277Y0026430D01*
X0238277Y0021430D01*
X0235777Y0018930D01*
X0235777Y0028930D02*
X0238277Y0031430D01*
X0238277Y0036430D01*
X0235777Y0038930D01*
X0220777Y0038930D01*
X0218277Y0041430D01*
X0218277Y0046430D01*
X0220777Y0048930D01*
X0235777Y0048930D01*
X0238277Y0046430D01*
X0238277Y0041430D01*
X0235777Y0038930D01*
X0235777Y0048930D02*
X0238277Y0051430D01*
X0238277Y0056430D01*
X0235777Y0058930D01*
X0220777Y0058930D01*
X0218277Y0061430D01*
X0218277Y0066430D01*
X0220777Y0068930D01*
X0235777Y0068930D01*
X0238277Y0066430D01*
X0238277Y0061430D01*
X0235777Y0058930D01*
X0235777Y0068930D02*
X0238277Y0071430D01*
X0238277Y0076430D01*
X0235777Y0078930D01*
X0220777Y0078930D01*
X0218277Y0081430D01*
X0218277Y0086430D01*
X0220777Y0088930D01*
X0235777Y0088930D01*
X0238277Y0086430D01*
X0238277Y0081430D01*
X0235777Y0078930D01*
X0235777Y0088930D02*
X0238277Y0091430D01*
X0238277Y0096430D01*
X0235777Y0098930D01*
X0220777Y0098930D01*
X0218277Y0101430D01*
X0218277Y0106430D01*
X0220777Y0108930D01*
X0235777Y0108930D01*
X0238277Y0106430D01*
X0238277Y0101430D01*
X0235777Y0098930D01*
X0235777Y0108930D02*
X0238277Y0111430D01*
X0238277Y0116430D01*
X0235777Y0118930D01*
X0220777Y0118930D01*
X0218277Y0121430D01*
X0218277Y0126430D01*
X0220777Y0128930D01*
X0235777Y0128930D01*
X0238277Y0126430D01*
X0238277Y0121430D01*
X0235777Y0118930D01*
X0235777Y0128930D02*
X0238277Y0131430D01*
X0238277Y0136430D01*
X0235777Y0138930D01*
X0220777Y0138930D01*
X0218277Y0141430D01*
X0218277Y0146430D01*
X0220777Y0148930D01*
X0235777Y0148930D01*
X0238277Y0146430D01*
X0238277Y0141430D01*
X0235777Y0138930D01*
X0235777Y0148930D02*
X0238277Y0151430D01*
X0238277Y0156430D01*
X0235777Y0158930D01*
X0220777Y0158930D01*
X0218277Y0156430D01*
X0218277Y0151430D01*
X0220777Y0148930D01*
X0213277Y0152962D02*
X0213277Y0175962D01*
X0073277Y0175962D01*
X0073277Y0168462D01*
X0073403Y0168460D01*
X0073528Y0168454D01*
X0073653Y0168444D01*
X0073778Y0168430D01*
X0073903Y0168413D01*
X0074027Y0168391D01*
X0074150Y0168366D01*
X0074272Y0168336D01*
X0074393Y0168303D01*
X0074513Y0168266D01*
X0074632Y0168226D01*
X0074749Y0168181D01*
X0074866Y0168133D01*
X0074980Y0168081D01*
X0075093Y0168026D01*
X0075204Y0167967D01*
X0075313Y0167905D01*
X0075420Y0167839D01*
X0075525Y0167770D01*
X0075628Y0167698D01*
X0075729Y0167623D01*
X0075827Y0167544D01*
X0075922Y0167462D01*
X0076015Y0167378D01*
X0076105Y0167290D01*
X0076193Y0167200D01*
X0076277Y0167107D01*
X0076359Y0167012D01*
X0076438Y0166914D01*
X0076513Y0166813D01*
X0076585Y0166710D01*
X0076654Y0166605D01*
X0076720Y0166498D01*
X0076782Y0166389D01*
X0076841Y0166278D01*
X0076896Y0166165D01*
X0076948Y0166051D01*
X0076996Y0165934D01*
X0077041Y0165817D01*
X0077081Y0165698D01*
X0077118Y0165578D01*
X0077151Y0165457D01*
X0077181Y0165335D01*
X0077206Y0165212D01*
X0077228Y0165088D01*
X0077245Y0164963D01*
X0077259Y0164838D01*
X0077269Y0164713D01*
X0077275Y0164588D01*
X0077277Y0164462D01*
X0077275Y0164336D01*
X0077269Y0164211D01*
X0077259Y0164086D01*
X0077245Y0163961D01*
X0077228Y0163836D01*
X0077206Y0163712D01*
X0077181Y0163589D01*
X0077151Y0163467D01*
X0077118Y0163346D01*
X0077081Y0163226D01*
X0077041Y0163107D01*
X0076996Y0162990D01*
X0076948Y0162873D01*
X0076896Y0162759D01*
X0076841Y0162646D01*
X0076782Y0162535D01*
X0076720Y0162426D01*
X0076654Y0162319D01*
X0076585Y0162214D01*
X0076513Y0162111D01*
X0076438Y0162010D01*
X0076359Y0161912D01*
X0076277Y0161817D01*
X0076193Y0161724D01*
X0076105Y0161634D01*
X0076015Y0161546D01*
X0075922Y0161462D01*
X0075827Y0161380D01*
X0075729Y0161301D01*
X0075628Y0161226D01*
X0075525Y0161154D01*
X0075420Y0161085D01*
X0075313Y0161019D01*
X0075204Y0160957D01*
X0075093Y0160898D01*
X0074980Y0160843D01*
X0074866Y0160791D01*
X0074749Y0160743D01*
X0074632Y0160698D01*
X0074513Y0160658D01*
X0074393Y0160621D01*
X0074272Y0160588D01*
X0074150Y0160558D01*
X0074027Y0160533D01*
X0073903Y0160511D01*
X0073778Y0160494D01*
X0073653Y0160480D01*
X0073528Y0160470D01*
X0073403Y0160464D01*
X0073277Y0160462D01*
X0073277Y0152962D01*
X0213277Y0152962D01*
X0220777Y0158930D02*
X0218277Y0161430D01*
X0218277Y0166430D01*
X0220777Y0168930D01*
X0235777Y0168930D01*
X0238277Y0166430D01*
X0238277Y0161430D01*
X0235777Y0158930D01*
X0235777Y0168930D02*
X0238277Y0171430D01*
X0238277Y0176430D01*
X0235777Y0178930D01*
X0220777Y0178930D01*
X0218277Y0176430D01*
X0218277Y0171430D01*
X0220777Y0168930D01*
X0220777Y0178930D02*
X0218277Y0181430D01*
X0218277Y0186430D01*
X0220777Y0188930D01*
X0235777Y0188930D01*
X0238277Y0186430D01*
X0238277Y0181430D01*
X0235777Y0178930D01*
X0235777Y0188930D02*
X0238277Y0191430D01*
X0238277Y0196430D01*
X0235777Y0198930D01*
X0220777Y0198930D01*
X0218277Y0196430D01*
X0218277Y0191430D01*
X0220777Y0188930D01*
X0213277Y0191962D02*
X0210777Y0189462D01*
X0205777Y0189462D01*
X0203277Y0191962D01*
X0200777Y0189462D01*
X0195777Y0189462D01*
X0193277Y0191962D01*
X0193277Y0196962D01*
X0195777Y0199462D01*
X0200777Y0199462D01*
X0203277Y0196962D01*
X0205777Y0199462D01*
X0210777Y0199462D01*
X0213277Y0196962D01*
X0213277Y0191962D01*
X0220777Y0198930D02*
X0218277Y0201430D01*
X0218277Y0206430D01*
X0220777Y0208930D01*
X0235777Y0208930D01*
X0238277Y0206430D01*
X0238277Y0201430D01*
X0235777Y0198930D01*
X0251072Y0196430D02*
X0251072Y0191430D01*
X0253572Y0188930D01*
X0268572Y0188930D01*
X0271072Y0186430D01*
X0271072Y0181430D01*
X0268572Y0178930D01*
X0253572Y0178930D01*
X0251072Y0176430D01*
X0251072Y0171430D01*
X0253572Y0168930D01*
X0268572Y0168930D01*
X0271072Y0166430D01*
X0271072Y0161430D01*
X0268572Y0158930D01*
X0253572Y0158930D01*
X0251072Y0156430D01*
X0251072Y0151430D01*
X0253572Y0148930D01*
X0268572Y0148930D01*
X0271072Y0146430D01*
X0271072Y0141430D01*
X0268572Y0138930D01*
X0253572Y0138930D01*
X0251072Y0141430D01*
X0251072Y0146430D01*
X0253572Y0148930D01*
X0253572Y0138930D02*
X0251072Y0136430D01*
X0251072Y0131430D01*
X0253572Y0128930D01*
X0268572Y0128930D01*
X0271072Y0126430D01*
X0271072Y0121430D01*
X0268572Y0118930D01*
X0253572Y0118930D01*
X0251072Y0121430D01*
X0251072Y0126430D01*
X0253572Y0128930D01*
X0253572Y0118930D02*
X0251072Y0116430D01*
X0251072Y0111430D01*
X0253572Y0108930D01*
X0268572Y0108930D01*
X0271072Y0106430D01*
X0271072Y0101430D01*
X0268572Y0098930D01*
X0253572Y0098930D01*
X0251072Y0101430D01*
X0251072Y0106430D01*
X0253572Y0108930D01*
X0253572Y0098930D02*
X0251072Y0096430D01*
X0251072Y0091430D01*
X0253572Y0088930D01*
X0268572Y0088930D01*
X0271072Y0086430D01*
X0271072Y0081430D01*
X0268572Y0078930D01*
X0253572Y0078930D01*
X0251072Y0081430D01*
X0251072Y0086430D01*
X0253572Y0088930D01*
X0253572Y0078930D02*
X0251072Y0076430D01*
X0251072Y0071430D01*
X0253572Y0068930D01*
X0268572Y0068930D01*
X0271072Y0066430D01*
X0271072Y0061430D01*
X0268572Y0058930D01*
X0253572Y0058930D01*
X0251072Y0061430D01*
X0251072Y0066430D01*
X0253572Y0068930D01*
X0253572Y0058930D02*
X0251072Y0056430D01*
X0251072Y0051430D01*
X0253572Y0048930D01*
X0268572Y0048930D01*
X0271072Y0046430D01*
X0271072Y0041430D01*
X0268572Y0038930D01*
X0253572Y0038930D01*
X0251072Y0041430D01*
X0251072Y0046430D01*
X0253572Y0048930D01*
X0253572Y0038930D02*
X0251072Y0036430D01*
X0251072Y0031430D01*
X0253572Y0028930D01*
X0268572Y0028930D01*
X0271072Y0026430D01*
X0271072Y0021430D01*
X0268572Y0018930D01*
X0271072Y0016430D01*
X0271072Y0011430D01*
X0268572Y0008930D01*
X0253572Y0008930D01*
X0251072Y0011430D01*
X0251072Y0016430D01*
X0253572Y0018930D01*
X0268572Y0018930D01*
X0268572Y0028930D02*
X0271072Y0031430D01*
X0271072Y0036430D01*
X0268572Y0038930D01*
X0268572Y0048930D02*
X0271072Y0051430D01*
X0271072Y0056430D01*
X0268572Y0058930D01*
X0268572Y0068930D02*
X0271072Y0071430D01*
X0271072Y0076430D01*
X0268572Y0078930D01*
X0268572Y0088930D02*
X0271072Y0091430D01*
X0271072Y0096430D01*
X0268572Y0098930D01*
X0268572Y0108930D02*
X0271072Y0111430D01*
X0271072Y0116430D01*
X0268572Y0118930D01*
X0268572Y0128930D02*
X0271072Y0131430D01*
X0271072Y0136430D01*
X0268572Y0138930D01*
X0268572Y0148930D02*
X0271072Y0151430D01*
X0271072Y0156430D01*
X0268572Y0158930D01*
X0268572Y0168930D02*
X0271072Y0171430D01*
X0271072Y0176430D01*
X0268572Y0178930D01*
X0268572Y0188930D02*
X0271072Y0191430D01*
X0271072Y0196430D01*
X0268572Y0198930D01*
X0253572Y0198930D01*
X0251072Y0196430D01*
X0253572Y0198930D02*
X0251072Y0201430D01*
X0251072Y0206430D01*
X0253572Y0208930D01*
X0268572Y0208930D01*
X0271072Y0206430D01*
X0271072Y0201430D01*
X0268572Y0198930D01*
X0253572Y0188930D02*
X0251072Y0186430D01*
X0251072Y0181430D01*
X0253572Y0178930D01*
X0253572Y0168930D02*
X0251072Y0166430D01*
X0251072Y0161430D01*
X0253572Y0158930D01*
X0220777Y0138930D02*
X0218277Y0136430D01*
X0218277Y0131430D01*
X0220777Y0128930D01*
X0212777Y0130462D02*
X0073777Y0130462D01*
X0073777Y0109462D01*
X0073917Y0109460D01*
X0074057Y0109454D01*
X0074197Y0109444D01*
X0074337Y0109431D01*
X0074476Y0109413D01*
X0074615Y0109391D01*
X0074752Y0109366D01*
X0074890Y0109337D01*
X0075026Y0109304D01*
X0075161Y0109267D01*
X0075295Y0109226D01*
X0075428Y0109181D01*
X0075560Y0109133D01*
X0075690Y0109081D01*
X0075819Y0109026D01*
X0075946Y0108967D01*
X0076072Y0108904D01*
X0076196Y0108838D01*
X0076317Y0108769D01*
X0076437Y0108696D01*
X0076555Y0108619D01*
X0076670Y0108540D01*
X0076784Y0108457D01*
X0076894Y0108371D01*
X0077003Y0108282D01*
X0077109Y0108190D01*
X0077212Y0108095D01*
X0077313Y0107998D01*
X0077410Y0107897D01*
X0077505Y0107794D01*
X0077597Y0107688D01*
X0077686Y0107579D01*
X0077772Y0107469D01*
X0077855Y0107355D01*
X0077934Y0107240D01*
X0078011Y0107122D01*
X0078084Y0107002D01*
X0078153Y0106881D01*
X0078219Y0106757D01*
X0078282Y0106631D01*
X0078341Y0106504D01*
X0078396Y0106375D01*
X0078448Y0106245D01*
X0078496Y0106113D01*
X0078541Y0105980D01*
X0078582Y0105846D01*
X0078619Y0105711D01*
X0078652Y0105575D01*
X0078681Y0105437D01*
X0078706Y0105300D01*
X0078728Y0105161D01*
X0078746Y0105022D01*
X0078759Y0104882D01*
X0078769Y0104742D01*
X0078775Y0104602D01*
X0078777Y0104462D01*
X0078775Y0104322D01*
X0078769Y0104182D01*
X0078759Y0104042D01*
X0078746Y0103902D01*
X0078728Y0103763D01*
X0078706Y0103624D01*
X0078681Y0103487D01*
X0078652Y0103349D01*
X0078619Y0103213D01*
X0078582Y0103078D01*
X0078541Y0102944D01*
X0078496Y0102811D01*
X0078448Y0102679D01*
X0078396Y0102549D01*
X0078341Y0102420D01*
X0078282Y0102293D01*
X0078219Y0102167D01*
X0078153Y0102043D01*
X0078084Y0101922D01*
X0078011Y0101802D01*
X0077934Y0101684D01*
X0077855Y0101569D01*
X0077772Y0101455D01*
X0077686Y0101345D01*
X0077597Y0101236D01*
X0077505Y0101130D01*
X0077410Y0101027D01*
X0077313Y0100926D01*
X0077212Y0100829D01*
X0077109Y0100734D01*
X0077003Y0100642D01*
X0076894Y0100553D01*
X0076784Y0100467D01*
X0076670Y0100384D01*
X0076555Y0100305D01*
X0076437Y0100228D01*
X0076317Y0100155D01*
X0076196Y0100086D01*
X0076072Y0100020D01*
X0075946Y0099957D01*
X0075819Y0099898D01*
X0075690Y0099843D01*
X0075560Y0099791D01*
X0075428Y0099743D01*
X0075295Y0099698D01*
X0075161Y0099657D01*
X0075026Y0099620D01*
X0074890Y0099587D01*
X0074752Y0099558D01*
X0074615Y0099533D01*
X0074476Y0099511D01*
X0074337Y0099493D01*
X0074197Y0099480D01*
X0074057Y0099470D01*
X0073917Y0099464D01*
X0073777Y0099462D01*
X0073777Y0078462D01*
X0212777Y0078462D01*
X0212777Y0130462D01*
X0206910Y0123057D02*
X0205842Y0123057D01*
X0204774Y0121989D01*
X0204774Y0118786D01*
X0206910Y0118786D01*
X0207977Y0119854D01*
X0207977Y0121989D01*
X0206910Y0123057D01*
X0202639Y0120922D02*
X0204774Y0118786D01*
X0204774Y0116611D02*
X0204774Y0112341D01*
X0203707Y0110166D02*
X0204774Y0109098D01*
X0204774Y0106963D01*
X0203707Y0105895D01*
X0202639Y0105895D01*
X0201572Y0106963D01*
X0201572Y0109098D01*
X0202639Y0110166D01*
X0203707Y0110166D01*
X0204774Y0109098D02*
X0205842Y0110166D01*
X0206910Y0110166D01*
X0207977Y0109098D01*
X0207977Y0106963D01*
X0206910Y0105895D01*
X0205842Y0105895D01*
X0204774Y0106963D01*
X0203707Y0103720D02*
X0202639Y0103720D01*
X0201572Y0102653D01*
X0201572Y0100517D01*
X0202639Y0099450D01*
X0202639Y0097275D02*
X0204774Y0097275D01*
X0205842Y0096207D01*
X0205842Y0093004D01*
X0207977Y0093004D02*
X0201572Y0093004D01*
X0201572Y0096207D01*
X0202639Y0097275D01*
X0207977Y0099450D02*
X0203707Y0103720D01*
X0207977Y0103720D02*
X0207977Y0099450D01*
X0218277Y0096430D02*
X0220777Y0098930D01*
X0218277Y0096430D02*
X0218277Y0091430D01*
X0220777Y0088930D01*
X0207977Y0088707D02*
X0207977Y0090843D01*
X0207977Y0089775D02*
X0201572Y0089775D01*
X0201572Y0088707D02*
X0201572Y0090843D01*
X0202639Y0086532D02*
X0201572Y0085465D01*
X0201572Y0082262D01*
X0207977Y0082262D01*
X0207977Y0085465D01*
X0206910Y0086532D01*
X0202639Y0086532D01*
X0218277Y0076430D02*
X0220777Y0078930D01*
X0218277Y0076430D02*
X0218277Y0071430D01*
X0220777Y0068930D01*
X0210777Y0059462D02*
X0213277Y0056962D01*
X0213277Y0051962D01*
X0210777Y0049462D01*
X0205777Y0049462D01*
X0203277Y0051962D01*
X0200777Y0049462D01*
X0195777Y0049462D01*
X0193277Y0051962D01*
X0190777Y0049462D01*
X0185777Y0049462D01*
X0183277Y0051962D01*
X0180777Y0049462D01*
X0175777Y0049462D01*
X0173277Y0051962D01*
X0170777Y0049462D01*
X0165777Y0049462D01*
X0163277Y0051962D01*
X0160777Y0049462D01*
X0155777Y0049462D01*
X0153277Y0051962D01*
X0153277Y0056962D02*
X0155777Y0059462D01*
X0160777Y0059462D01*
X0163277Y0056962D01*
X0165777Y0059462D01*
X0170777Y0059462D01*
X0173277Y0056962D01*
X0175777Y0059462D01*
X0180777Y0059462D01*
X0183277Y0056962D01*
X0183277Y0051962D01*
X0183277Y0056962D02*
X0185777Y0059462D01*
X0190777Y0059462D01*
X0193277Y0056962D01*
X0195777Y0059462D01*
X0200777Y0059462D01*
X0203277Y0056962D01*
X0205777Y0059462D01*
X0210777Y0059462D01*
X0218277Y0056430D02*
X0220777Y0058930D01*
X0218277Y0056430D02*
X0218277Y0051430D01*
X0220777Y0048930D01*
X0220777Y0038930D02*
X0218277Y0036430D01*
X0218277Y0031430D01*
X0220777Y0028930D01*
X0203277Y0051962D02*
X0203277Y0056962D01*
X0193277Y0056962D02*
X0193277Y0051962D01*
X0173277Y0051962D02*
X0173277Y0056962D01*
X0163277Y0056962D02*
X0163277Y0051962D01*
X0220777Y0108930D02*
X0218277Y0111430D01*
X0218277Y0116430D01*
X0220777Y0118930D01*
X0202639Y0120922D02*
X0201572Y0123057D01*
X0190777Y0189462D02*
X0185777Y0189462D01*
X0183277Y0191962D01*
X0180777Y0189462D01*
X0175777Y0189462D01*
X0173277Y0191962D01*
X0170777Y0189462D01*
X0165777Y0189462D01*
X0163277Y0191962D01*
X0163277Y0196962D01*
X0165777Y0199462D01*
X0170777Y0199462D01*
X0173277Y0196962D01*
X0175777Y0199462D01*
X0180777Y0199462D01*
X0183277Y0196962D01*
X0185777Y0199462D01*
X0190777Y0199462D01*
X0193277Y0196962D01*
X0193277Y0191962D02*
X0190777Y0189462D01*
X0183277Y0191962D02*
X0183277Y0196962D01*
X0173277Y0196962D02*
X0173277Y0191962D01*
X0163277Y0191962D02*
X0160777Y0189462D01*
X0155777Y0189462D01*
X0153277Y0191962D01*
X0150777Y0189462D01*
X0145777Y0189462D01*
X0143277Y0191962D01*
X0140777Y0189462D01*
X0135777Y0189462D01*
X0133277Y0191962D01*
X0133277Y0196962D01*
X0135777Y0199462D01*
X0140777Y0199462D01*
X0143277Y0196962D01*
X0145777Y0199462D01*
X0150777Y0199462D01*
X0153277Y0196962D01*
X0155777Y0199462D01*
X0160777Y0199462D01*
X0163277Y0196962D01*
X0153277Y0196962D02*
X0153277Y0191962D01*
X0143277Y0191962D02*
X0143277Y0196962D01*
X0133277Y0196962D02*
X0130777Y0199462D01*
X0125777Y0199462D01*
X0123277Y0196962D01*
X0120777Y0199462D01*
X0115777Y0199462D01*
X0113277Y0196962D01*
X0110777Y0199462D01*
X0105777Y0199462D01*
X0103277Y0196962D01*
X0103277Y0191962D01*
X0105777Y0189462D01*
X0110777Y0189462D01*
X0113277Y0191962D01*
X0113277Y0196962D01*
X0113277Y0191962D02*
X0115777Y0189462D01*
X0120777Y0189462D01*
X0123277Y0191962D01*
X0123277Y0196962D01*
X0123277Y0191962D02*
X0125777Y0189462D01*
X0130777Y0189462D01*
X0133277Y0191962D01*
X0103277Y0191962D02*
X0100777Y0189462D01*
X0095777Y0189462D01*
X0093277Y0191962D01*
X0090777Y0189462D01*
X0085777Y0189462D01*
X0083277Y0191962D01*
X0080777Y0189462D01*
X0075777Y0189462D01*
X0073277Y0191962D01*
X0073277Y0196962D01*
X0075777Y0199462D01*
X0080777Y0199462D01*
X0083277Y0196962D01*
X0085777Y0199462D01*
X0090777Y0199462D01*
X0093277Y0196962D01*
X0095777Y0199462D01*
X0100777Y0199462D01*
X0103277Y0196962D01*
X0093277Y0196962D02*
X0093277Y0191962D01*
X0083277Y0191962D02*
X0083277Y0196962D01*
X0063277Y0196430D02*
X0063277Y0191430D01*
X0060777Y0188930D01*
X0045777Y0188930D01*
X0043277Y0186430D01*
X0043277Y0181430D01*
X0045777Y0178930D01*
X0060777Y0178930D01*
X0063277Y0176430D01*
X0063277Y0171430D01*
X0060777Y0168930D01*
X0045777Y0168930D01*
X0043277Y0166430D01*
X0043277Y0161430D01*
X0045777Y0158930D01*
X0045777Y0168930D02*
X0043277Y0171430D01*
X0043277Y0176430D01*
X0045777Y0178930D01*
X0045777Y0188930D02*
X0043277Y0191430D01*
X0043277Y0196430D01*
X0045777Y0198930D01*
X0060777Y0198930D01*
X0063277Y0196430D01*
X0060777Y0198930D02*
X0063277Y0201430D01*
X0063277Y0206430D01*
X0060777Y0208930D01*
X0045777Y0208930D01*
X0043277Y0206430D01*
X0043277Y0201430D01*
X0045777Y0198930D01*
X0031072Y0196430D02*
X0031072Y0191430D01*
X0028572Y0188930D01*
X0013572Y0188930D01*
X0011072Y0186430D01*
X0011072Y0181430D01*
X0013572Y0178930D01*
X0028572Y0178930D01*
X0031072Y0176430D01*
X0031072Y0171430D01*
X0028572Y0168930D01*
X0013572Y0168930D01*
X0011072Y0166430D01*
X0011072Y0161430D01*
X0013572Y0158930D01*
X0013572Y0168930D02*
X0011072Y0171430D01*
X0011072Y0176430D01*
X0013572Y0178930D01*
X0013572Y0188930D02*
X0011072Y0191430D01*
X0011072Y0196430D01*
X0013572Y0198930D01*
X0028572Y0198930D01*
X0031072Y0196430D01*
X0028572Y0198930D02*
X0031072Y0201430D01*
X0031072Y0206430D01*
X0028572Y0208930D01*
X0013572Y0208930D01*
X0011072Y0206430D01*
X0011072Y0201430D01*
X0013572Y0198930D01*
X0028572Y0188930D02*
X0031072Y0186430D01*
X0031072Y0181430D01*
X0028572Y0178930D01*
X0028572Y0168930D02*
X0031072Y0166430D01*
X0031072Y0161430D01*
X0028572Y0158930D01*
X0060777Y0158930D02*
X0063277Y0161430D01*
X0063277Y0166430D01*
X0060777Y0168930D01*
X0060777Y0178930D02*
X0063277Y0181430D01*
X0063277Y0186430D01*
X0060777Y0188930D01*
X0203277Y0191962D02*
X0203277Y0196962D01*
X0253572Y0028930D02*
X0251072Y0026430D01*
X0251072Y0021430D01*
X0253572Y0018930D01*
D12*
X0243127Y0029112D02*
X0239824Y0029112D01*
X0239824Y0030763D01*
X0240375Y0031314D01*
X0241476Y0031314D01*
X0242026Y0030763D01*
X0242026Y0029112D01*
X0242577Y0032427D02*
X0240375Y0032427D01*
X0239824Y0032977D01*
X0239824Y0034078D01*
X0240375Y0034629D01*
X0241476Y0035742D02*
X0241476Y0037943D01*
X0243127Y0037393D02*
X0239824Y0037393D01*
X0241476Y0035742D01*
X0242577Y0034629D02*
X0243127Y0034078D01*
X0243127Y0032977D01*
X0242577Y0032427D01*
X0243127Y0048112D02*
X0239824Y0048112D01*
X0239824Y0049763D01*
X0240375Y0050314D01*
X0240925Y0050314D01*
X0241476Y0049763D01*
X0241476Y0048112D01*
X0243127Y0048112D02*
X0243127Y0049763D01*
X0242577Y0050314D01*
X0242026Y0050314D01*
X0241476Y0049763D01*
X0240925Y0051427D02*
X0239824Y0052528D01*
X0243127Y0052528D01*
X0243127Y0051427D02*
X0243127Y0053629D01*
X0242577Y0054742D02*
X0243127Y0055292D01*
X0243127Y0056393D01*
X0242577Y0056943D01*
X0242026Y0056943D01*
X0241476Y0056393D01*
X0241476Y0055843D01*
X0241476Y0056393D02*
X0240925Y0056943D01*
X0240375Y0056943D01*
X0239824Y0056393D01*
X0239824Y0055292D01*
X0240375Y0054742D01*
X0241824Y0058112D02*
X0241824Y0059763D01*
X0242375Y0060314D01*
X0242925Y0060314D01*
X0243476Y0059763D01*
X0243476Y0058112D01*
X0245127Y0058112D02*
X0241824Y0058112D01*
X0243476Y0059763D02*
X0244026Y0060314D01*
X0244577Y0060314D01*
X0245127Y0059763D01*
X0245127Y0058112D01*
X0245127Y0061427D02*
X0245127Y0063629D01*
X0245127Y0062528D02*
X0241824Y0062528D01*
X0242925Y0061427D01*
X0243476Y0064742D02*
X0243476Y0066943D01*
X0245127Y0066393D02*
X0241824Y0066393D01*
X0243476Y0064742D01*
X0243127Y0069112D02*
X0239824Y0069112D01*
X0239824Y0070763D01*
X0240375Y0071314D01*
X0240925Y0071314D01*
X0241476Y0070763D01*
X0241476Y0069112D01*
X0243127Y0069112D02*
X0243127Y0070763D01*
X0242577Y0071314D01*
X0242026Y0071314D01*
X0241476Y0070763D01*
X0240925Y0072427D02*
X0239824Y0073528D01*
X0243127Y0073528D01*
X0243127Y0072427D02*
X0243127Y0074629D01*
X0242577Y0075742D02*
X0243127Y0076292D01*
X0243127Y0077393D01*
X0242577Y0077943D01*
X0241476Y0077943D01*
X0240925Y0077393D01*
X0240925Y0076843D01*
X0241476Y0075742D01*
X0239824Y0075742D01*
X0239824Y0077943D01*
X0241824Y0082112D02*
X0241824Y0083763D01*
X0242375Y0084314D01*
X0242925Y0084314D01*
X0243476Y0083763D01*
X0243476Y0082112D01*
X0245127Y0082112D02*
X0241824Y0082112D01*
X0243476Y0083763D02*
X0244026Y0084314D01*
X0244577Y0084314D01*
X0245127Y0083763D01*
X0245127Y0082112D01*
X0245127Y0085427D02*
X0245127Y0087629D01*
X0245127Y0086528D02*
X0241824Y0086528D01*
X0242925Y0085427D01*
X0243127Y0090112D02*
X0239824Y0090112D01*
X0239824Y0091763D01*
X0240375Y0092314D01*
X0240925Y0092314D01*
X0241476Y0091763D01*
X0241476Y0090112D01*
X0243127Y0090112D02*
X0243127Y0091763D01*
X0242577Y0092314D01*
X0242026Y0092314D01*
X0241476Y0091763D01*
X0240375Y0093427D02*
X0239824Y0093977D01*
X0239824Y0095078D01*
X0240375Y0095629D01*
X0240925Y0095629D01*
X0243127Y0093427D01*
X0243127Y0095629D01*
X0242375Y0098112D02*
X0244577Y0098112D01*
X0245127Y0098662D01*
X0245127Y0099763D01*
X0244577Y0100314D01*
X0243476Y0100314D01*
X0243476Y0099213D01*
X0242375Y0100314D02*
X0241824Y0099763D01*
X0241824Y0098662D01*
X0242375Y0098112D01*
X0241824Y0101427D02*
X0245127Y0103629D01*
X0241824Y0103629D01*
X0241824Y0104742D02*
X0241824Y0106393D01*
X0242375Y0106943D01*
X0244577Y0106943D01*
X0245127Y0106393D01*
X0245127Y0104742D01*
X0241824Y0104742D01*
X0241824Y0101427D02*
X0245127Y0101427D01*
X0243127Y0109112D02*
X0239824Y0109112D01*
X0239824Y0110763D01*
X0240375Y0111314D01*
X0240925Y0111314D01*
X0241476Y0110763D01*
X0241476Y0109112D01*
X0243127Y0109112D02*
X0243127Y0110763D01*
X0242577Y0111314D01*
X0242026Y0111314D01*
X0241476Y0110763D01*
X0240925Y0112427D02*
X0239824Y0113528D01*
X0243127Y0113528D01*
X0243127Y0112427D02*
X0243127Y0114629D01*
X0243127Y0115742D02*
X0243127Y0117943D01*
X0243127Y0116843D02*
X0239824Y0116843D01*
X0240925Y0115742D01*
X0241824Y0119112D02*
X0241824Y0120763D01*
X0242375Y0121314D01*
X0242925Y0121314D01*
X0243476Y0120763D01*
X0243476Y0119112D01*
X0245127Y0119112D02*
X0241824Y0119112D01*
X0243476Y0120763D02*
X0244026Y0121314D01*
X0244577Y0121314D01*
X0245127Y0120763D01*
X0245127Y0119112D01*
X0245127Y0122427D02*
X0245127Y0124629D01*
X0245127Y0123528D02*
X0241824Y0123528D01*
X0242925Y0122427D01*
X0242375Y0125742D02*
X0241824Y0126292D01*
X0241824Y0127393D01*
X0242375Y0127943D01*
X0242925Y0127943D01*
X0245127Y0125742D01*
X0245127Y0127943D01*
X0243127Y0130112D02*
X0240925Y0130112D01*
X0239824Y0131213D01*
X0240925Y0132314D01*
X0243127Y0132314D01*
X0243127Y0133427D02*
X0243127Y0135629D01*
X0243127Y0134528D02*
X0239824Y0134528D01*
X0240925Y0133427D01*
X0241476Y0132314D02*
X0241476Y0130112D01*
X0240925Y0136742D02*
X0239824Y0137843D01*
X0243127Y0137843D01*
X0243127Y0138943D02*
X0243127Y0136742D01*
X0242925Y0139112D02*
X0241824Y0140213D01*
X0242925Y0141314D01*
X0245127Y0141314D01*
X0245127Y0142427D02*
X0245127Y0144629D01*
X0245127Y0143528D02*
X0241824Y0143528D01*
X0242925Y0142427D01*
X0243476Y0141314D02*
X0243476Y0139112D01*
X0242925Y0139112D02*
X0245127Y0139112D01*
X0245127Y0145742D02*
X0242925Y0147943D01*
X0242375Y0147943D01*
X0241824Y0147393D01*
X0241824Y0146292D01*
X0242375Y0145742D01*
X0245127Y0145742D02*
X0245127Y0147943D01*
X0243127Y0149662D02*
X0243127Y0150763D01*
X0242577Y0151314D01*
X0241476Y0151314D01*
X0241476Y0150213D01*
X0242577Y0149112D02*
X0243127Y0149662D01*
X0242577Y0149112D02*
X0240375Y0149112D01*
X0239824Y0149662D01*
X0239824Y0150763D01*
X0240375Y0151314D01*
X0239824Y0152427D02*
X0243127Y0154629D01*
X0239824Y0154629D01*
X0239824Y0155742D02*
X0239824Y0157393D01*
X0240375Y0157943D01*
X0242577Y0157943D01*
X0243127Y0157393D01*
X0243127Y0155742D01*
X0239824Y0155742D01*
X0239824Y0152427D02*
X0243127Y0152427D01*
X0241824Y0159112D02*
X0244577Y0159112D01*
X0245127Y0159662D01*
X0245127Y0160763D01*
X0244577Y0161314D01*
X0241824Y0161314D01*
X0241824Y0162427D02*
X0243476Y0162427D01*
X0242925Y0163528D01*
X0242925Y0164078D01*
X0243476Y0164629D01*
X0244577Y0164629D01*
X0245127Y0164078D01*
X0245127Y0162977D01*
X0244577Y0162427D01*
X0241824Y0162427D02*
X0241824Y0164629D01*
X0241824Y0165742D02*
X0244026Y0165742D01*
X0245127Y0166843D01*
X0244026Y0167943D01*
X0241824Y0167943D01*
X0242577Y0171112D02*
X0240375Y0171112D01*
X0239824Y0171662D01*
X0239824Y0172763D01*
X0240375Y0173314D01*
X0239824Y0174427D02*
X0241476Y0174427D01*
X0240925Y0175528D01*
X0240925Y0176078D01*
X0241476Y0176629D01*
X0242577Y0176629D01*
X0243127Y0176078D01*
X0243127Y0174977D01*
X0242577Y0174427D01*
X0242577Y0173314D02*
X0243127Y0172763D01*
X0243127Y0171662D01*
X0242577Y0171112D01*
X0239824Y0174427D02*
X0239824Y0176629D01*
X0242375Y0182112D02*
X0244577Y0182112D01*
X0245127Y0182662D01*
X0245127Y0183763D01*
X0244577Y0184314D01*
X0244577Y0185427D02*
X0243476Y0185427D01*
X0243476Y0187078D01*
X0244026Y0187629D01*
X0244577Y0187629D01*
X0245127Y0187078D01*
X0245127Y0185977D01*
X0244577Y0185427D01*
X0243476Y0185427D02*
X0242375Y0186528D01*
X0241824Y0187629D01*
X0242375Y0184314D02*
X0241824Y0183763D01*
X0241824Y0182662D01*
X0242375Y0182112D01*
X0242577Y0192112D02*
X0240375Y0192112D01*
X0239824Y0192662D01*
X0239824Y0193763D01*
X0240375Y0194314D01*
X0240375Y0195427D02*
X0240925Y0195427D01*
X0241476Y0195977D01*
X0241476Y0197078D01*
X0242026Y0197629D01*
X0242577Y0197629D01*
X0243127Y0197078D01*
X0243127Y0195977D01*
X0242577Y0195427D01*
X0242026Y0195427D01*
X0241476Y0195977D01*
X0241476Y0197078D02*
X0240925Y0197629D01*
X0240375Y0197629D01*
X0239824Y0197078D01*
X0239824Y0195977D01*
X0240375Y0195427D01*
X0242577Y0194314D02*
X0243127Y0193763D01*
X0243127Y0192662D01*
X0242577Y0192112D01*
X0240378Y0211011D02*
X0239828Y0211011D01*
X0240378Y0211011D02*
X0240929Y0211561D01*
X0240929Y0214314D01*
X0242042Y0214314D02*
X0244244Y0214314D01*
X0242042Y0212112D01*
X0244244Y0212112D01*
X0245357Y0212112D02*
X0247559Y0215415D01*
X0240929Y0212112D02*
X0239277Y0212112D01*
X0238727Y0212662D01*
X0238727Y0214314D01*
X0237614Y0214314D02*
X0235412Y0212112D01*
X0234305Y0212112D02*
X0233755Y0212112D01*
X0233755Y0212662D01*
X0234305Y0212662D01*
X0234305Y0212112D01*
X0232646Y0212112D02*
X0232095Y0212662D01*
X0232095Y0214864D01*
X0231545Y0214314D02*
X0232646Y0214314D01*
X0230432Y0213763D02*
X0230432Y0212662D01*
X0229881Y0212112D01*
X0228781Y0212112D01*
X0228230Y0212662D01*
X0228230Y0213763D01*
X0228781Y0214314D01*
X0229881Y0214314D01*
X0230432Y0213763D01*
X0227117Y0213763D02*
X0227117Y0212112D01*
X0226016Y0212112D02*
X0226016Y0213763D01*
X0226567Y0214314D01*
X0227117Y0213763D01*
X0226016Y0213763D02*
X0225466Y0214314D01*
X0224915Y0214314D01*
X0224915Y0212112D01*
X0223806Y0212112D02*
X0222705Y0212112D01*
X0223256Y0212112D02*
X0223256Y0215415D01*
X0222705Y0215415D01*
X0221592Y0213763D02*
X0221042Y0214314D01*
X0219941Y0214314D01*
X0219391Y0213763D01*
X0219391Y0212662D01*
X0219941Y0212112D01*
X0221042Y0212112D01*
X0221592Y0213213D02*
X0219391Y0213213D01*
X0221592Y0213213D02*
X0221592Y0213763D01*
X0218278Y0215415D02*
X0216076Y0212112D01*
X0212761Y0212112D02*
X0214963Y0215415D01*
X0211654Y0214314D02*
X0211654Y0213763D01*
X0211103Y0213763D01*
X0211103Y0214314D01*
X0211654Y0214314D01*
X0211654Y0212662D02*
X0211654Y0212112D01*
X0211103Y0212112D01*
X0211103Y0212662D01*
X0211654Y0212662D01*
X0209991Y0212662D02*
X0209440Y0213213D01*
X0208339Y0213213D01*
X0207789Y0213763D01*
X0208339Y0214314D01*
X0209991Y0214314D01*
X0209991Y0212662D02*
X0209440Y0212112D01*
X0207789Y0212112D01*
X0206676Y0212662D02*
X0206676Y0213763D01*
X0206125Y0214314D01*
X0204474Y0214314D01*
X0204474Y0211011D01*
X0204474Y0212112D02*
X0206125Y0212112D01*
X0206676Y0212662D01*
X0203365Y0212112D02*
X0202814Y0212662D01*
X0202814Y0214864D01*
X0202264Y0214314D02*
X0203365Y0214314D01*
X0201155Y0214314D02*
X0200054Y0214314D01*
X0200605Y0214864D02*
X0200605Y0212662D01*
X0201155Y0212112D01*
X0198941Y0212112D02*
X0198941Y0213763D01*
X0198391Y0214314D01*
X0197290Y0214314D01*
X0196739Y0213763D01*
X0196739Y0212112D02*
X0196739Y0215415D01*
X0192311Y0215415D02*
X0192311Y0212112D01*
X0190660Y0212112D01*
X0190110Y0212662D01*
X0190110Y0213763D01*
X0190660Y0214314D01*
X0192311Y0214314D01*
X0189001Y0212112D02*
X0187900Y0212112D01*
X0188450Y0212112D02*
X0188450Y0215415D01*
X0187900Y0215415D01*
X0186787Y0213763D02*
X0186787Y0213213D01*
X0184585Y0213213D01*
X0184585Y0213763D02*
X0185135Y0214314D01*
X0186236Y0214314D01*
X0186787Y0213763D01*
X0186236Y0212112D02*
X0185135Y0212112D01*
X0184585Y0212662D01*
X0184585Y0213763D01*
X0182925Y0214314D02*
X0182925Y0212112D01*
X0182375Y0212112D02*
X0183476Y0212112D01*
X0181262Y0212112D02*
X0181262Y0213763D01*
X0180712Y0214314D01*
X0179611Y0214314D01*
X0179060Y0213763D01*
X0177947Y0213213D02*
X0177947Y0212662D01*
X0177397Y0212112D01*
X0176296Y0212112D01*
X0175745Y0212662D01*
X0176296Y0213763D02*
X0177397Y0213763D01*
X0177947Y0213213D01*
X0179060Y0212112D02*
X0179060Y0215415D01*
X0177947Y0214864D02*
X0177397Y0215415D01*
X0176296Y0215415D01*
X0175745Y0214864D01*
X0175745Y0214314D01*
X0176296Y0213763D01*
X0171318Y0213763D02*
X0171318Y0213213D01*
X0169116Y0213213D01*
X0169116Y0213763D02*
X0169666Y0214314D01*
X0170767Y0214314D01*
X0171318Y0213763D01*
X0170767Y0212112D02*
X0169666Y0212112D01*
X0169116Y0212662D01*
X0169116Y0213763D01*
X0168003Y0213763D02*
X0168003Y0212662D01*
X0167452Y0212112D01*
X0165801Y0212112D01*
X0165801Y0211011D02*
X0165801Y0214314D01*
X0167452Y0214314D01*
X0168003Y0213763D01*
X0164688Y0214314D02*
X0164688Y0211561D01*
X0164137Y0211011D01*
X0163587Y0211011D01*
X0163037Y0212112D02*
X0164688Y0212112D01*
X0163037Y0212112D02*
X0162486Y0212662D01*
X0162486Y0214314D01*
X0161377Y0214314D02*
X0160276Y0214314D01*
X0160827Y0214864D02*
X0160827Y0212662D01*
X0161377Y0212112D01*
X0159163Y0212662D02*
X0159163Y0213763D01*
X0158613Y0214314D01*
X0157512Y0214314D01*
X0156961Y0213763D01*
X0156961Y0212662D01*
X0157512Y0212112D01*
X0158613Y0212112D01*
X0159163Y0212662D01*
X0155852Y0212112D02*
X0155302Y0212662D01*
X0155302Y0214864D01*
X0155852Y0214314D02*
X0154751Y0214314D01*
X0153638Y0213763D02*
X0153638Y0212662D01*
X0153088Y0212112D01*
X0151987Y0212112D01*
X0151437Y0212662D01*
X0151437Y0213763D01*
X0151987Y0214314D01*
X0153088Y0214314D01*
X0153638Y0213763D01*
X0150326Y0214314D02*
X0149775Y0214314D01*
X0148674Y0213213D01*
X0148674Y0212112D02*
X0148674Y0214314D01*
X0147561Y0214864D02*
X0147011Y0215415D01*
X0145359Y0215415D01*
X0145359Y0212112D01*
X0145359Y0213213D02*
X0147011Y0213213D01*
X0147561Y0213763D01*
X0147561Y0214864D01*
X0140932Y0213763D02*
X0138730Y0213763D01*
X0140381Y0215415D01*
X0140381Y0212112D01*
X0137617Y0212662D02*
X0137617Y0213213D01*
X0137066Y0213763D01*
X0135415Y0213763D01*
X0135415Y0212662D01*
X0135965Y0212112D01*
X0137066Y0212112D01*
X0137617Y0212662D01*
X0136516Y0214864D02*
X0135415Y0213763D01*
X0134302Y0213763D02*
X0132100Y0213763D01*
X0130987Y0213763D02*
X0130987Y0212662D01*
X0130437Y0212112D01*
X0129336Y0212112D01*
X0128785Y0212662D01*
X0128785Y0213763D01*
X0129336Y0214314D01*
X0130437Y0214314D01*
X0130987Y0213763D01*
X0127672Y0213763D02*
X0127672Y0213213D01*
X0125470Y0213213D01*
X0125470Y0213763D02*
X0126021Y0214314D01*
X0127122Y0214314D01*
X0127672Y0213763D01*
X0127122Y0212112D02*
X0126021Y0212112D01*
X0125470Y0212662D01*
X0125470Y0213763D01*
X0124362Y0212112D02*
X0123261Y0212112D01*
X0123811Y0212112D02*
X0123811Y0215415D01*
X0123261Y0215415D01*
X0122148Y0214314D02*
X0120496Y0214314D01*
X0119946Y0213763D01*
X0119946Y0212662D01*
X0120496Y0212112D01*
X0122148Y0212112D01*
X0118833Y0212112D02*
X0118833Y0214314D01*
X0116631Y0214314D02*
X0116631Y0212662D01*
X0117181Y0212112D01*
X0118833Y0212112D01*
X0115518Y0212112D02*
X0115518Y0215415D01*
X0113316Y0215415D02*
X0115518Y0212112D01*
X0113316Y0212112D02*
X0113316Y0215415D01*
X0108888Y0214864D02*
X0108338Y0215415D01*
X0107237Y0215415D01*
X0106686Y0214864D01*
X0105574Y0214864D02*
X0105023Y0215415D01*
X0103922Y0215415D01*
X0103372Y0214864D01*
X0102259Y0215415D02*
X0101158Y0214314D01*
X0100057Y0215415D01*
X0100057Y0212112D01*
X0102259Y0212112D02*
X0102259Y0215415D01*
X0104473Y0213763D02*
X0105023Y0213763D01*
X0105574Y0213213D01*
X0105574Y0212662D01*
X0105023Y0212112D01*
X0103922Y0212112D01*
X0103372Y0212662D01*
X0105023Y0213763D02*
X0105574Y0214314D01*
X0105574Y0214864D01*
X0106686Y0212112D02*
X0108888Y0214314D01*
X0108888Y0214864D01*
X0108888Y0212112D02*
X0106686Y0212112D01*
X0098944Y0215415D02*
X0096742Y0215415D01*
X0097843Y0215415D02*
X0097843Y0212112D01*
X0095629Y0212662D02*
X0095079Y0212112D01*
X0093978Y0212112D01*
X0093427Y0212662D01*
X0093978Y0213763D02*
X0095079Y0213763D01*
X0095629Y0213213D01*
X0095629Y0212662D01*
X0093978Y0213763D02*
X0093427Y0214314D01*
X0093427Y0214864D01*
X0093978Y0215415D01*
X0095079Y0215415D01*
X0095629Y0214864D01*
X0073158Y0195415D02*
X0073158Y0192112D01*
X0072057Y0192112D02*
X0074259Y0192112D01*
X0072057Y0194314D02*
X0073158Y0195415D01*
X0069843Y0195415D02*
X0069843Y0192112D01*
X0068742Y0192112D02*
X0070944Y0192112D01*
X0068742Y0194314D02*
X0069843Y0195415D01*
X0067629Y0194864D02*
X0067079Y0195415D01*
X0065978Y0195415D01*
X0065427Y0194864D01*
X0065427Y0192662D01*
X0065978Y0192112D01*
X0067079Y0192112D01*
X0067629Y0192662D01*
X0067079Y0185415D02*
X0065427Y0185415D01*
X0065427Y0182112D01*
X0067079Y0182112D01*
X0067629Y0182662D01*
X0067629Y0184864D01*
X0067079Y0185415D01*
X0068742Y0184864D02*
X0069292Y0185415D01*
X0070393Y0185415D01*
X0070944Y0184864D01*
X0070944Y0184314D01*
X0068742Y0182112D01*
X0070944Y0182112D01*
X0070944Y0175415D02*
X0068742Y0175415D01*
X0068742Y0173763D01*
X0069843Y0174314D01*
X0070393Y0174314D01*
X0070944Y0173763D01*
X0070944Y0172662D01*
X0070393Y0172112D01*
X0069292Y0172112D01*
X0068742Y0172662D01*
X0067629Y0172112D02*
X0065427Y0172112D01*
X0065427Y0175415D01*
X0067629Y0175415D01*
X0066528Y0173763D02*
X0065427Y0173763D01*
X0072057Y0173213D02*
X0073158Y0172112D01*
X0074259Y0173213D01*
X0074259Y0175415D01*
X0072057Y0175415D02*
X0072057Y0173213D01*
X0072708Y0165415D02*
X0071057Y0165415D01*
X0071057Y0162112D01*
X0072708Y0162112D01*
X0073259Y0162662D01*
X0073259Y0164864D01*
X0072708Y0165415D01*
X0069944Y0165415D02*
X0069944Y0162112D01*
X0067742Y0165415D01*
X0067742Y0162112D01*
X0066629Y0162662D02*
X0066629Y0163763D01*
X0065528Y0163763D01*
X0064427Y0162662D02*
X0064978Y0162112D01*
X0066079Y0162112D01*
X0066629Y0162662D01*
X0064427Y0162662D02*
X0064427Y0164864D01*
X0064978Y0165415D01*
X0066079Y0165415D01*
X0066629Y0164864D01*
X0066079Y0155415D02*
X0064978Y0155415D01*
X0064427Y0154864D01*
X0064427Y0152662D01*
X0064978Y0152112D01*
X0066079Y0152112D01*
X0066629Y0152662D01*
X0066629Y0153763D01*
X0065528Y0153763D01*
X0066629Y0154864D02*
X0066079Y0155415D01*
X0067742Y0155415D02*
X0069944Y0152112D01*
X0069944Y0155415D01*
X0071057Y0155415D02*
X0071057Y0152112D01*
X0072708Y0152112D01*
X0073259Y0152662D01*
X0073259Y0154864D01*
X0072708Y0155415D01*
X0071057Y0155415D01*
X0067742Y0155415D02*
X0067742Y0152112D01*
X0068288Y0145415D02*
X0068839Y0144864D01*
X0068839Y0142662D01*
X0068288Y0142112D01*
X0067188Y0142112D01*
X0066637Y0142662D01*
X0066637Y0144864D01*
X0067188Y0145415D01*
X0068288Y0145415D01*
X0069952Y0144314D02*
X0069952Y0142112D01*
X0069952Y0143213D02*
X0071053Y0144314D01*
X0071603Y0144314D01*
X0072714Y0143763D02*
X0073815Y0143763D01*
X0073265Y0144864D02*
X0073815Y0145415D01*
X0073265Y0144864D02*
X0073265Y0142112D01*
X0078427Y0142581D02*
X0079662Y0143815D01*
X0079662Y0140112D01*
X0080896Y0140112D02*
X0078427Y0140112D01*
X0074222Y0136012D02*
X0064277Y0136012D01*
X0064427Y0135415D02*
X0064427Y0132112D01*
X0064427Y0133213D02*
X0066079Y0133213D01*
X0066629Y0133763D01*
X0066629Y0134864D01*
X0066079Y0135415D01*
X0064427Y0135415D01*
X0065528Y0133213D02*
X0066629Y0132112D01*
X0067742Y0132662D02*
X0068292Y0132112D01*
X0069393Y0132112D01*
X0069944Y0132662D01*
X0069944Y0133213D01*
X0069393Y0133763D01*
X0068292Y0133763D01*
X0067742Y0134314D01*
X0067742Y0134864D01*
X0068292Y0135415D01*
X0069393Y0135415D01*
X0069944Y0134864D01*
X0071057Y0135415D02*
X0073259Y0135415D01*
X0072158Y0135415D02*
X0072158Y0132112D01*
X0071051Y0125415D02*
X0069950Y0125415D01*
X0069399Y0124864D01*
X0070500Y0123763D02*
X0071051Y0123763D01*
X0071601Y0123213D01*
X0071601Y0122662D01*
X0071051Y0122112D01*
X0069950Y0122112D01*
X0069399Y0122662D01*
X0068292Y0122662D02*
X0068292Y0122112D01*
X0067742Y0122112D01*
X0067742Y0122662D01*
X0068292Y0122662D01*
X0066629Y0122662D02*
X0066629Y0123213D01*
X0066079Y0123763D01*
X0065528Y0123763D01*
X0066079Y0123763D02*
X0066629Y0124314D01*
X0066629Y0124864D01*
X0066079Y0125415D01*
X0064978Y0125415D01*
X0064427Y0124864D01*
X0064427Y0122662D02*
X0064978Y0122112D01*
X0066079Y0122112D01*
X0066629Y0122662D01*
X0071051Y0123763D02*
X0071601Y0124314D01*
X0071601Y0124864D01*
X0071051Y0125415D01*
X0071051Y0115415D02*
X0069950Y0115415D01*
X0069399Y0114864D01*
X0069399Y0112662D01*
X0071601Y0114864D01*
X0071601Y0112662D01*
X0071051Y0112112D01*
X0069950Y0112112D01*
X0069399Y0112662D01*
X0068292Y0112662D02*
X0068292Y0112112D01*
X0067742Y0112112D01*
X0067742Y0112662D01*
X0068292Y0112662D01*
X0066629Y0112662D02*
X0066079Y0112112D01*
X0064978Y0112112D01*
X0064427Y0112662D01*
X0064427Y0113763D02*
X0065528Y0114314D01*
X0066079Y0114314D01*
X0066629Y0113763D01*
X0066629Y0112662D01*
X0064427Y0113763D02*
X0064427Y0115415D01*
X0066629Y0115415D01*
X0071051Y0115415D02*
X0071601Y0114864D01*
X0071057Y0105415D02*
X0072708Y0105415D01*
X0073259Y0104864D01*
X0073259Y0102662D01*
X0072708Y0102112D01*
X0071057Y0102112D01*
X0071057Y0105415D01*
X0069944Y0105415D02*
X0069944Y0102112D01*
X0067742Y0105415D01*
X0067742Y0102112D01*
X0066629Y0102662D02*
X0066629Y0103763D01*
X0065528Y0103763D01*
X0064427Y0104864D02*
X0064427Y0102662D01*
X0064978Y0102112D01*
X0066079Y0102112D01*
X0066629Y0102662D01*
X0066629Y0104864D02*
X0066079Y0105415D01*
X0064978Y0105415D01*
X0064427Y0104864D01*
X0064978Y0095415D02*
X0064427Y0094864D01*
X0064427Y0092662D01*
X0064978Y0092112D01*
X0066079Y0092112D01*
X0066629Y0092662D01*
X0066629Y0093763D01*
X0065528Y0093763D01*
X0066629Y0094864D02*
X0066079Y0095415D01*
X0064978Y0095415D01*
X0067742Y0095415D02*
X0069944Y0092112D01*
X0069944Y0095415D01*
X0071057Y0095415D02*
X0072708Y0095415D01*
X0073259Y0094864D01*
X0073259Y0092662D01*
X0072708Y0092112D01*
X0071057Y0092112D01*
X0071057Y0095415D01*
X0067742Y0095415D02*
X0067742Y0092112D01*
X0067742Y0085415D02*
X0068843Y0085415D01*
X0068292Y0085415D02*
X0068292Y0082112D01*
X0067742Y0082112D02*
X0068843Y0082112D01*
X0069952Y0082112D02*
X0069952Y0085415D01*
X0072154Y0082112D01*
X0072154Y0085415D01*
X0066629Y0085415D02*
X0066629Y0083213D01*
X0065528Y0082112D01*
X0064427Y0083213D01*
X0064427Y0085415D01*
X0064427Y0075415D02*
X0064427Y0073213D01*
X0065528Y0072112D01*
X0066629Y0073213D01*
X0066629Y0075415D01*
X0067742Y0075415D02*
X0068843Y0075415D01*
X0068292Y0075415D02*
X0068292Y0072112D01*
X0067742Y0072112D02*
X0068843Y0072112D01*
X0069952Y0072112D02*
X0069952Y0075415D01*
X0072154Y0072112D01*
X0072154Y0075415D01*
X0074662Y0070815D02*
X0074662Y0067112D01*
X0075896Y0067112D02*
X0073427Y0067112D01*
X0073427Y0069581D02*
X0074662Y0070815D01*
X0069393Y0065415D02*
X0069944Y0064864D01*
X0067742Y0062662D01*
X0068292Y0062112D01*
X0069393Y0062112D01*
X0069944Y0062662D01*
X0069944Y0064864D01*
X0069393Y0065415D02*
X0068292Y0065415D01*
X0067742Y0064864D01*
X0067742Y0062662D01*
X0066629Y0062112D02*
X0066629Y0064314D01*
X0065528Y0065415D01*
X0064427Y0064314D01*
X0064427Y0062112D01*
X0064427Y0063763D02*
X0066629Y0063763D01*
X0065528Y0055415D02*
X0066629Y0054314D01*
X0066629Y0052112D01*
X0067742Y0052112D02*
X0069944Y0052112D01*
X0068843Y0052112D02*
X0068843Y0055415D01*
X0067742Y0054314D01*
X0066629Y0053763D02*
X0064427Y0053763D01*
X0064427Y0054314D02*
X0065528Y0055415D01*
X0064427Y0054314D02*
X0064427Y0052112D01*
X0065528Y0045415D02*
X0066629Y0044314D01*
X0066629Y0042112D01*
X0066629Y0043763D02*
X0064427Y0043763D01*
X0064427Y0044314D02*
X0064427Y0042112D01*
X0064427Y0044314D02*
X0065528Y0045415D01*
X0067742Y0043763D02*
X0069944Y0043763D01*
X0069393Y0042112D02*
X0069393Y0045415D01*
X0067742Y0043763D01*
X0068292Y0035415D02*
X0069393Y0035415D01*
X0069944Y0034864D01*
X0067742Y0032662D01*
X0068292Y0032112D01*
X0069393Y0032112D01*
X0069944Y0032662D01*
X0069944Y0034864D01*
X0068292Y0035415D02*
X0067742Y0034864D01*
X0067742Y0032662D01*
X0066629Y0032662D02*
X0066629Y0033213D01*
X0066079Y0033763D01*
X0064427Y0033763D01*
X0064427Y0032112D02*
X0066079Y0032112D01*
X0066629Y0032662D01*
X0066079Y0033763D02*
X0066629Y0034314D01*
X0066629Y0034864D01*
X0066079Y0035415D01*
X0064427Y0035415D01*
X0064427Y0032112D01*
X0064978Y0025415D02*
X0064427Y0024864D01*
X0064427Y0022662D01*
X0064978Y0022112D01*
X0066079Y0022112D01*
X0066629Y0022662D01*
X0067742Y0022112D02*
X0069944Y0022112D01*
X0068843Y0022112D02*
X0068843Y0025415D01*
X0067742Y0024314D01*
X0066629Y0024864D02*
X0066079Y0025415D01*
X0064978Y0025415D01*
X0064978Y0015415D02*
X0064427Y0014864D01*
X0064427Y0012662D01*
X0064978Y0012112D01*
X0066079Y0012112D01*
X0066629Y0012662D01*
X0067742Y0012662D02*
X0069944Y0014864D01*
X0069944Y0012662D01*
X0069393Y0012112D01*
X0068292Y0012112D01*
X0067742Y0012662D01*
X0067742Y0014864D01*
X0068292Y0015415D01*
X0069393Y0015415D01*
X0069944Y0014864D01*
X0066629Y0014864D02*
X0066079Y0015415D01*
X0064978Y0015415D01*
X0074427Y0007198D02*
X0075044Y0007815D01*
X0076279Y0007815D01*
X0076896Y0007198D01*
X0076896Y0006581D01*
X0076279Y0005964D01*
X0076896Y0005346D01*
X0076896Y0004729D01*
X0076279Y0004112D01*
X0075044Y0004112D01*
X0074427Y0004729D01*
X0075662Y0005964D02*
X0076279Y0005964D01*
X0078110Y0005346D02*
X0079345Y0004112D01*
X0080579Y0005346D01*
X0080579Y0007815D01*
X0081793Y0007198D02*
X0082411Y0007815D01*
X0083645Y0007815D01*
X0084262Y0007198D01*
X0084262Y0006581D01*
X0083645Y0005964D01*
X0084262Y0005346D01*
X0084262Y0004729D01*
X0083645Y0004112D01*
X0082411Y0004112D01*
X0081793Y0004729D01*
X0083028Y0005964D02*
X0083645Y0005964D01*
X0078110Y0005346D02*
X0078110Y0007815D01*
X0041158Y0032112D02*
X0040607Y0032662D01*
X0040607Y0034864D01*
X0040057Y0034314D02*
X0041158Y0034314D01*
X0038944Y0033763D02*
X0038944Y0032662D01*
X0038393Y0032112D01*
X0036742Y0032112D01*
X0036742Y0035415D01*
X0036742Y0034314D02*
X0038393Y0034314D01*
X0038944Y0033763D01*
X0035629Y0033213D02*
X0034528Y0032112D01*
X0033427Y0033213D01*
X0033427Y0035415D01*
X0035629Y0035415D02*
X0035629Y0033213D01*
X0035079Y0025415D02*
X0033978Y0025415D01*
X0033427Y0024864D01*
X0033427Y0022662D01*
X0033978Y0022112D01*
X0035079Y0022112D01*
X0035629Y0022662D01*
X0036742Y0022112D02*
X0038944Y0024314D01*
X0038944Y0024864D01*
X0038393Y0025415D01*
X0037292Y0025415D01*
X0036742Y0024864D01*
X0035629Y0024864D02*
X0035079Y0025415D01*
X0036742Y0022112D02*
X0038944Y0022112D01*
X0038393Y0015415D02*
X0038944Y0014864D01*
X0038944Y0014314D01*
X0038393Y0013763D01*
X0038944Y0013213D01*
X0038944Y0012662D01*
X0038393Y0012112D01*
X0037292Y0012112D01*
X0036742Y0012662D01*
X0035629Y0012662D02*
X0035079Y0012112D01*
X0033978Y0012112D01*
X0033427Y0012662D01*
X0033427Y0014864D01*
X0033978Y0015415D01*
X0035079Y0015415D01*
X0035629Y0014864D01*
X0036742Y0014864D02*
X0037292Y0015415D01*
X0038393Y0015415D01*
X0038393Y0013763D02*
X0037843Y0013763D01*
X0036742Y0042112D02*
X0036742Y0045415D01*
X0038944Y0045415D01*
X0040057Y0044314D02*
X0041158Y0045415D01*
X0041158Y0042112D01*
X0040057Y0042112D02*
X0042259Y0042112D01*
X0037843Y0043763D02*
X0036742Y0043763D01*
X0035629Y0043763D02*
X0033427Y0043763D01*
X0033427Y0042112D02*
X0033427Y0045415D01*
X0035629Y0045415D02*
X0035629Y0042112D01*
X0035629Y0052112D02*
X0035629Y0055415D01*
X0036742Y0055415D02*
X0038944Y0055415D01*
X0040057Y0054864D02*
X0040607Y0055415D01*
X0041708Y0055415D01*
X0042259Y0054864D01*
X0040057Y0052662D01*
X0040607Y0052112D01*
X0041708Y0052112D01*
X0042259Y0052662D01*
X0042259Y0054864D01*
X0040057Y0054864D02*
X0040057Y0052662D01*
X0037843Y0053763D02*
X0036742Y0053763D01*
X0035629Y0053763D02*
X0033427Y0053763D01*
X0033427Y0052112D02*
X0033427Y0055415D01*
X0036742Y0055415D02*
X0036742Y0052112D01*
X0036742Y0062112D02*
X0038944Y0062112D01*
X0037843Y0062112D02*
X0037843Y0065415D01*
X0036742Y0064314D01*
X0035629Y0064864D02*
X0035079Y0065415D01*
X0033978Y0065415D01*
X0033427Y0064864D01*
X0033427Y0062662D01*
X0033978Y0062112D01*
X0035079Y0062112D01*
X0035629Y0062662D01*
X0040057Y0062662D02*
X0040607Y0062112D01*
X0041708Y0062112D01*
X0042259Y0062662D01*
X0042259Y0063763D01*
X0041708Y0064314D01*
X0041158Y0064314D01*
X0040057Y0063763D01*
X0040057Y0065415D01*
X0042259Y0065415D01*
X0041708Y0072112D02*
X0041708Y0075415D01*
X0040057Y0073763D01*
X0042259Y0073763D01*
X0038944Y0072112D02*
X0036742Y0072112D01*
X0037843Y0072112D02*
X0037843Y0075415D01*
X0036742Y0074314D01*
X0035629Y0074864D02*
X0035079Y0075415D01*
X0033978Y0075415D01*
X0033427Y0074864D01*
X0033427Y0072662D01*
X0033978Y0072112D01*
X0035079Y0072112D01*
X0035629Y0072662D01*
X0035079Y0082112D02*
X0035629Y0082662D01*
X0035079Y0082112D02*
X0033978Y0082112D01*
X0033427Y0082662D01*
X0033427Y0084864D01*
X0033978Y0085415D01*
X0035079Y0085415D01*
X0035629Y0084864D01*
X0036742Y0084314D02*
X0037843Y0085415D01*
X0037843Y0082112D01*
X0036742Y0082112D02*
X0038944Y0082112D01*
X0040057Y0082662D02*
X0040607Y0082112D01*
X0041708Y0082112D01*
X0042259Y0082662D01*
X0042259Y0083213D01*
X0041708Y0083763D01*
X0041158Y0083763D01*
X0041708Y0083763D02*
X0042259Y0084314D01*
X0042259Y0084864D01*
X0041708Y0085415D01*
X0040607Y0085415D01*
X0040057Y0084864D01*
X0036742Y0092112D02*
X0036742Y0092662D01*
X0038944Y0094864D01*
X0038944Y0095415D01*
X0036742Y0095415D01*
X0035629Y0094864D02*
X0035629Y0094314D01*
X0035079Y0093763D01*
X0033427Y0093763D01*
X0033427Y0092112D02*
X0035079Y0092112D01*
X0035629Y0092662D01*
X0035629Y0093213D01*
X0035079Y0093763D01*
X0035629Y0094864D02*
X0035079Y0095415D01*
X0033427Y0095415D01*
X0033427Y0092112D01*
X0033978Y0102112D02*
X0033427Y0102662D01*
X0033427Y0104864D01*
X0033978Y0105415D01*
X0035079Y0105415D01*
X0035629Y0104864D01*
X0035629Y0103763D02*
X0034528Y0103763D01*
X0035629Y0103763D02*
X0035629Y0102662D01*
X0035079Y0102112D01*
X0033978Y0102112D01*
X0036742Y0102112D02*
X0036742Y0105415D01*
X0038944Y0102112D01*
X0038944Y0105415D01*
X0040057Y0105415D02*
X0041708Y0105415D01*
X0042259Y0104864D01*
X0042259Y0102662D01*
X0041708Y0102112D01*
X0040057Y0102112D01*
X0040057Y0105415D01*
X0040607Y0112112D02*
X0040057Y0112662D01*
X0040607Y0112112D02*
X0041708Y0112112D01*
X0042259Y0112662D01*
X0042259Y0113763D01*
X0041708Y0114314D01*
X0041158Y0114314D01*
X0040057Y0113763D01*
X0040057Y0115415D01*
X0042259Y0115415D01*
X0037843Y0115415D02*
X0037843Y0112112D01*
X0036742Y0112112D02*
X0038944Y0112112D01*
X0036742Y0114314D02*
X0037843Y0115415D01*
X0035629Y0114314D02*
X0035629Y0112112D01*
X0035629Y0113763D02*
X0033427Y0113763D01*
X0033427Y0114314D02*
X0033427Y0112112D01*
X0033427Y0114314D02*
X0034528Y0115415D01*
X0035629Y0114314D01*
X0035629Y0122112D02*
X0035629Y0124314D01*
X0034528Y0125415D01*
X0033427Y0124314D01*
X0033427Y0122112D01*
X0033427Y0123763D02*
X0035629Y0123763D01*
X0036742Y0124314D02*
X0037843Y0125415D01*
X0037843Y0122112D01*
X0036742Y0122112D02*
X0038944Y0122112D01*
X0040057Y0123763D02*
X0042259Y0123763D01*
X0041708Y0122112D02*
X0041708Y0125415D01*
X0040057Y0123763D01*
X0040607Y0132112D02*
X0040057Y0132662D01*
X0040607Y0132112D02*
X0041708Y0132112D01*
X0042259Y0132662D01*
X0042259Y0133213D01*
X0041708Y0133763D01*
X0041158Y0133763D01*
X0041708Y0133763D02*
X0042259Y0134314D01*
X0042259Y0134864D01*
X0041708Y0135415D01*
X0040607Y0135415D01*
X0040057Y0134864D01*
X0037843Y0135415D02*
X0037843Y0132112D01*
X0036742Y0132112D02*
X0038944Y0132112D01*
X0036742Y0134314D02*
X0037843Y0135415D01*
X0035629Y0134314D02*
X0035629Y0132112D01*
X0035629Y0133763D02*
X0033427Y0133763D01*
X0033427Y0134314D02*
X0033427Y0132112D01*
X0033427Y0134314D02*
X0034528Y0135415D01*
X0035629Y0134314D01*
X0035079Y0142112D02*
X0033978Y0142112D01*
X0033427Y0142662D01*
X0034528Y0143763D02*
X0035079Y0143763D01*
X0035629Y0143213D01*
X0035629Y0142662D01*
X0035079Y0142112D01*
X0035079Y0143763D02*
X0035629Y0144314D01*
X0035629Y0144864D01*
X0035079Y0145415D01*
X0033978Y0145415D01*
X0033427Y0144864D01*
X0036742Y0142662D02*
X0037292Y0142662D01*
X0037292Y0142112D01*
X0036742Y0142112D01*
X0036742Y0142662D01*
X0038399Y0142662D02*
X0038950Y0142112D01*
X0040051Y0142112D01*
X0040601Y0142662D01*
X0040601Y0143213D01*
X0040051Y0143763D01*
X0039500Y0143763D01*
X0040051Y0143763D02*
X0040601Y0144314D01*
X0040601Y0144864D01*
X0040051Y0145415D01*
X0038950Y0145415D01*
X0038399Y0144864D01*
X0038950Y0152112D02*
X0038399Y0152662D01*
X0038950Y0152112D02*
X0040051Y0152112D01*
X0040601Y0152662D01*
X0040601Y0153213D01*
X0040051Y0153763D01*
X0039500Y0153763D01*
X0040051Y0153763D02*
X0040601Y0154314D01*
X0040601Y0154864D01*
X0040051Y0155415D01*
X0038950Y0155415D01*
X0038399Y0154864D01*
X0037292Y0152662D02*
X0037292Y0152112D01*
X0036742Y0152112D01*
X0036742Y0152662D01*
X0037292Y0152662D01*
X0035629Y0152662D02*
X0035079Y0152112D01*
X0033978Y0152112D01*
X0033427Y0152662D01*
X0034528Y0153763D02*
X0035079Y0153763D01*
X0035629Y0153213D01*
X0035629Y0152662D01*
X0035079Y0153763D02*
X0035629Y0154314D01*
X0035629Y0154864D01*
X0035079Y0155415D01*
X0033978Y0155415D01*
X0033427Y0154864D01*
X0033427Y0162112D02*
X0035079Y0162112D01*
X0035629Y0162662D01*
X0035629Y0163213D01*
X0035079Y0163763D01*
X0033427Y0163763D01*
X0033427Y0162112D02*
X0033427Y0165415D01*
X0035079Y0165415D01*
X0035629Y0164864D01*
X0035629Y0164314D01*
X0035079Y0163763D01*
X0036742Y0162662D02*
X0037292Y0162112D01*
X0038393Y0162112D01*
X0038944Y0162662D01*
X0038944Y0164864D01*
X0038393Y0165415D01*
X0037292Y0165415D01*
X0036742Y0164864D01*
X0036742Y0162662D01*
X0040057Y0162662D02*
X0040607Y0162112D01*
X0041708Y0162112D01*
X0042259Y0162662D01*
X0042259Y0164864D01*
X0041708Y0165415D01*
X0040607Y0165415D01*
X0040057Y0164864D01*
X0040057Y0162662D01*
X0040057Y0172112D02*
X0041708Y0172112D01*
X0042259Y0172662D01*
X0042259Y0174864D01*
X0041708Y0175415D01*
X0040057Y0175415D01*
X0040057Y0172112D01*
X0038944Y0172662D02*
X0038944Y0174864D01*
X0038393Y0175415D01*
X0036742Y0175415D01*
X0036742Y0172112D01*
X0038393Y0172112D01*
X0038944Y0172662D01*
X0035629Y0173213D02*
X0035629Y0175415D01*
X0033427Y0175415D02*
X0033427Y0173213D01*
X0034528Y0172112D01*
X0035629Y0173213D01*
X0035079Y0183112D02*
X0035629Y0183662D01*
X0035079Y0183112D02*
X0033978Y0183112D01*
X0033427Y0183662D01*
X0033427Y0185864D01*
X0033978Y0186415D01*
X0035079Y0186415D01*
X0035629Y0185864D01*
X0036742Y0185314D02*
X0037843Y0186415D01*
X0037843Y0183112D01*
X0036742Y0183112D02*
X0038944Y0183112D01*
X0040057Y0183112D02*
X0042259Y0185314D01*
X0042259Y0185864D01*
X0041708Y0186415D01*
X0040607Y0186415D01*
X0040057Y0185864D01*
X0040057Y0183112D02*
X0042259Y0183112D01*
X0041708Y0192112D02*
X0040607Y0192112D01*
X0040057Y0192662D01*
X0042259Y0194864D01*
X0042259Y0192662D01*
X0041708Y0192112D01*
X0040057Y0192662D02*
X0040057Y0194864D01*
X0040607Y0195415D01*
X0041708Y0195415D01*
X0042259Y0194864D01*
X0038944Y0192112D02*
X0036742Y0192112D01*
X0037843Y0192112D02*
X0037843Y0195415D01*
X0036742Y0194314D01*
X0035629Y0194864D02*
X0035079Y0195415D01*
X0033978Y0195415D01*
X0033427Y0194864D01*
X0033427Y0192662D01*
X0033978Y0192112D01*
X0035079Y0192112D01*
X0035629Y0192662D01*
X0064427Y0145415D02*
X0065528Y0145415D01*
X0064978Y0145415D02*
X0064978Y0142112D01*
X0065528Y0142112D02*
X0064427Y0142112D01*
X0103424Y0115280D02*
X0103424Y0114046D01*
X0104041Y0113429D01*
X0104658Y0113429D01*
X0105276Y0114046D01*
X0105276Y0115280D01*
X0105893Y0115898D01*
X0106510Y0115898D01*
X0107127Y0115280D01*
X0107127Y0114046D01*
X0106510Y0113429D01*
X0105893Y0113429D01*
X0105276Y0114046D01*
X0105276Y0115280D02*
X0104658Y0115898D01*
X0104041Y0115898D01*
X0103424Y0115280D01*
X0104041Y0112214D02*
X0103424Y0111597D01*
X0103424Y0110363D01*
X0104041Y0109746D01*
X0105276Y0108531D02*
X0105276Y0106062D01*
X0105276Y0104848D02*
X0105893Y0104231D01*
X0105893Y0102379D01*
X0107127Y0102379D02*
X0103424Y0102379D01*
X0103424Y0104231D01*
X0104041Y0104848D01*
X0105276Y0104848D01*
X0106510Y0101165D02*
X0104041Y0101165D01*
X0103424Y0100548D01*
X0103424Y0099313D01*
X0104041Y0098696D01*
X0106510Y0098696D01*
X0107127Y0099313D01*
X0107127Y0100548D01*
X0106510Y0101165D01*
X0109424Y0100538D02*
X0111276Y0100538D01*
X0110658Y0101772D01*
X0110658Y0102389D01*
X0111276Y0103007D01*
X0112510Y0103007D01*
X0113127Y0102389D01*
X0113127Y0101155D01*
X0112510Y0100538D01*
X0112510Y0099323D02*
X0111893Y0099323D01*
X0111276Y0098706D01*
X0111276Y0096855D01*
X0112510Y0096855D01*
X0113127Y0097472D01*
X0113127Y0098706D01*
X0112510Y0099323D01*
X0111276Y0096855D02*
X0110041Y0098089D01*
X0109424Y0099323D01*
X0109424Y0100538D02*
X0109424Y0103007D01*
X0110658Y0104221D02*
X0110658Y0104838D01*
X0111276Y0105455D01*
X0110658Y0106072D01*
X0111276Y0106690D01*
X0113127Y0106690D01*
X0113127Y0107904D02*
X0110658Y0107904D01*
X0110658Y0108521D01*
X0111276Y0109138D01*
X0110658Y0109756D01*
X0111276Y0110373D01*
X0113127Y0110373D01*
X0113127Y0109138D02*
X0111276Y0109138D01*
X0111276Y0105455D02*
X0113127Y0105455D01*
X0113127Y0104221D02*
X0110658Y0104221D01*
X0107127Y0109746D02*
X0104658Y0112214D01*
X0104041Y0112214D01*
X0107127Y0112214D02*
X0107127Y0109746D01*
X0106510Y0097482D02*
X0105893Y0097482D01*
X0105276Y0096865D01*
X0105276Y0095630D01*
X0104658Y0095013D01*
X0104041Y0095013D01*
X0103424Y0095630D01*
X0103424Y0096865D01*
X0104041Y0097482D01*
X0106510Y0097482D02*
X0107127Y0096865D01*
X0107127Y0095630D01*
X0106510Y0095013D01*
X0106510Y0093799D02*
X0105893Y0093799D01*
X0105276Y0093181D01*
X0105276Y0091947D01*
X0104658Y0091330D01*
X0104041Y0091330D01*
X0103424Y0091947D01*
X0103424Y0093181D01*
X0104041Y0093799D01*
X0106510Y0093799D02*
X0107127Y0093181D01*
X0107127Y0091947D01*
X0106510Y0091330D01*
X0109424Y0091947D02*
X0109424Y0093181D01*
X0110041Y0093799D01*
X0112510Y0091330D01*
X0113127Y0091947D01*
X0113127Y0093181D01*
X0112510Y0093799D01*
X0110041Y0093799D01*
X0109424Y0091947D02*
X0110041Y0091330D01*
X0112510Y0091330D01*
X0112510Y0095013D02*
X0112510Y0095630D01*
X0113127Y0095630D01*
X0113127Y0095013D01*
X0112510Y0095013D01*
X0120427Y0091581D02*
X0121662Y0092815D01*
X0121662Y0089112D01*
X0122896Y0089112D02*
X0120427Y0089112D01*
X0184424Y0036680D02*
X0184424Y0034211D01*
X0186276Y0034211D01*
X0185658Y0035445D01*
X0185658Y0036062D01*
X0186276Y0036680D01*
X0187510Y0036680D01*
X0188127Y0036062D01*
X0188127Y0034828D01*
X0187510Y0034211D01*
X0186276Y0032996D02*
X0186276Y0030528D01*
X0186893Y0029313D02*
X0187510Y0029313D01*
X0188127Y0028696D01*
X0188127Y0027462D01*
X0187510Y0026845D01*
X0188127Y0025630D02*
X0188127Y0023161D01*
X0185658Y0025630D01*
X0185041Y0025630D01*
X0184424Y0025013D01*
X0184424Y0023779D01*
X0185041Y0023161D01*
X0184424Y0021947D02*
X0184424Y0019478D01*
X0184424Y0020713D02*
X0188127Y0020713D01*
X0187510Y0018264D02*
X0185041Y0018264D01*
X0184424Y0017647D01*
X0184424Y0016412D01*
X0185041Y0015795D01*
X0187510Y0015795D01*
X0188127Y0016412D01*
X0188127Y0017647D01*
X0187510Y0018264D01*
X0187510Y0014581D02*
X0188127Y0013964D01*
X0188127Y0012729D01*
X0187510Y0012112D01*
X0186276Y0012729D02*
X0186276Y0013964D01*
X0186893Y0014581D01*
X0187510Y0014581D01*
X0186276Y0012729D02*
X0185658Y0012112D01*
X0185041Y0012112D01*
X0184424Y0012729D01*
X0184424Y0013964D01*
X0185041Y0014581D01*
X0185041Y0026845D02*
X0184424Y0027462D01*
X0184424Y0028696D01*
X0185041Y0029313D01*
X0185658Y0029313D01*
X0186276Y0028696D01*
X0186893Y0029313D01*
X0186276Y0028696D02*
X0186276Y0028079D01*
X0213824Y0030213D02*
X0214925Y0031314D01*
X0217127Y0031314D01*
X0217127Y0032427D02*
X0217127Y0034629D01*
X0217127Y0033528D02*
X0213824Y0033528D01*
X0214925Y0032427D01*
X0215476Y0031314D02*
X0215476Y0029112D01*
X0214925Y0029112D02*
X0213824Y0030213D01*
X0214925Y0029112D02*
X0217127Y0029112D01*
X0217127Y0025629D02*
X0217127Y0023427D01*
X0214925Y0025629D01*
X0214375Y0025629D01*
X0213824Y0025078D01*
X0213824Y0023977D01*
X0214375Y0023427D01*
X0214925Y0022314D02*
X0217127Y0022314D01*
X0215476Y0022314D02*
X0215476Y0020112D01*
X0214925Y0020112D02*
X0213824Y0021213D01*
X0214925Y0022314D01*
X0214925Y0020112D02*
X0217127Y0020112D01*
X0216577Y0016629D02*
X0217127Y0016078D01*
X0217127Y0014977D01*
X0216577Y0014427D01*
X0217127Y0013314D02*
X0214925Y0013314D01*
X0213824Y0012213D01*
X0214925Y0011112D01*
X0217127Y0011112D01*
X0215476Y0011112D02*
X0215476Y0013314D01*
X0214375Y0014427D02*
X0213824Y0014977D01*
X0213824Y0016078D01*
X0214375Y0016629D01*
X0214925Y0016629D01*
X0215476Y0016078D01*
X0216026Y0016629D01*
X0216577Y0016629D01*
X0215476Y0016078D02*
X0215476Y0015528D01*
X0216577Y0035742D02*
X0214375Y0035742D01*
X0213824Y0036292D01*
X0213824Y0037393D01*
X0214375Y0037943D01*
X0216577Y0035742D01*
X0217127Y0036292D01*
X0217127Y0037393D01*
X0216577Y0037943D01*
X0214375Y0037943D01*
X0213824Y0041112D02*
X0213824Y0042763D01*
X0214375Y0043314D01*
X0214925Y0043314D01*
X0215476Y0042763D01*
X0215476Y0041112D01*
X0217127Y0041112D02*
X0213824Y0041112D01*
X0215476Y0042763D02*
X0216026Y0043314D01*
X0216577Y0043314D01*
X0217127Y0042763D01*
X0217127Y0041112D01*
X0216577Y0044427D02*
X0217127Y0044977D01*
X0217127Y0046078D01*
X0216577Y0046629D01*
X0216026Y0046629D01*
X0215476Y0046078D01*
X0215476Y0045528D01*
X0215476Y0046078D02*
X0214925Y0046629D01*
X0214375Y0046629D01*
X0213824Y0046078D01*
X0213824Y0044977D01*
X0214375Y0044427D01*
X0213824Y0051112D02*
X0213824Y0052763D01*
X0214375Y0053314D01*
X0214925Y0053314D01*
X0215476Y0052763D01*
X0215476Y0051112D01*
X0217127Y0051112D02*
X0213824Y0051112D01*
X0215476Y0052763D02*
X0216026Y0053314D01*
X0216577Y0053314D01*
X0217127Y0052763D01*
X0217127Y0051112D01*
X0216577Y0054427D02*
X0217127Y0054977D01*
X0217127Y0056078D01*
X0216577Y0056629D01*
X0215476Y0056629D01*
X0214925Y0056078D01*
X0214925Y0055528D01*
X0215476Y0054427D01*
X0213824Y0054427D01*
X0213824Y0056629D01*
X0213824Y0061112D02*
X0213824Y0062763D01*
X0214375Y0063314D01*
X0214925Y0063314D01*
X0215476Y0062763D01*
X0215476Y0061112D01*
X0217127Y0061112D02*
X0213824Y0061112D01*
X0215476Y0062763D02*
X0216026Y0063314D01*
X0216577Y0063314D01*
X0217127Y0062763D01*
X0217127Y0061112D01*
X0215476Y0064427D02*
X0215476Y0066629D01*
X0217127Y0066078D02*
X0213824Y0066078D01*
X0215476Y0064427D01*
X0215476Y0069112D02*
X0215476Y0070763D01*
X0216026Y0071314D01*
X0216577Y0071314D01*
X0217127Y0070763D01*
X0217127Y0069112D01*
X0213824Y0069112D01*
X0213824Y0070763D01*
X0214375Y0071314D01*
X0214925Y0071314D01*
X0215476Y0070763D01*
X0214925Y0072427D02*
X0213824Y0073528D01*
X0217127Y0073528D01*
X0217127Y0072427D02*
X0217127Y0074629D01*
X0216577Y0075742D02*
X0214375Y0077943D01*
X0216577Y0077943D01*
X0217127Y0077393D01*
X0217127Y0076292D01*
X0216577Y0075742D01*
X0214375Y0075742D01*
X0213824Y0076292D01*
X0213824Y0077393D01*
X0214375Y0077943D01*
X0214925Y0080112D02*
X0213824Y0081213D01*
X0214925Y0082314D01*
X0217127Y0082314D01*
X0216577Y0083427D02*
X0216026Y0083427D01*
X0215476Y0083977D01*
X0215476Y0085078D01*
X0216026Y0085629D01*
X0216577Y0085629D01*
X0217127Y0085078D01*
X0217127Y0083977D01*
X0216577Y0083427D01*
X0215476Y0083977D02*
X0214925Y0083427D01*
X0214375Y0083427D01*
X0213824Y0083977D01*
X0213824Y0085078D01*
X0214375Y0085629D01*
X0214925Y0085629D01*
X0215476Y0085078D01*
X0215476Y0082314D02*
X0215476Y0080112D01*
X0214925Y0080112D02*
X0217127Y0080112D01*
X0217127Y0090112D02*
X0214925Y0090112D01*
X0213824Y0091213D01*
X0214925Y0092314D01*
X0217127Y0092314D01*
X0216577Y0093427D02*
X0217127Y0093977D01*
X0217127Y0095078D01*
X0216577Y0095629D01*
X0214375Y0095629D01*
X0213824Y0095078D01*
X0213824Y0093977D01*
X0214375Y0093427D01*
X0214925Y0093427D01*
X0215476Y0093977D01*
X0215476Y0095629D01*
X0215476Y0092314D02*
X0215476Y0090112D01*
X0214375Y0100112D02*
X0216577Y0100112D01*
X0217127Y0100662D01*
X0217127Y0101763D01*
X0216577Y0102314D01*
X0216577Y0103427D02*
X0217127Y0103427D01*
X0216577Y0103427D02*
X0214375Y0105629D01*
X0213824Y0105629D01*
X0213824Y0103427D01*
X0214375Y0102314D02*
X0213824Y0101763D01*
X0213824Y0100662D01*
X0214375Y0100112D01*
X0213824Y0110112D02*
X0213824Y0111763D01*
X0214375Y0112314D01*
X0214925Y0112314D01*
X0215476Y0111763D01*
X0215476Y0110112D01*
X0217127Y0110112D02*
X0213824Y0110112D01*
X0215476Y0111763D02*
X0216026Y0112314D01*
X0216577Y0112314D01*
X0217127Y0111763D01*
X0217127Y0110112D01*
X0216577Y0113427D02*
X0215476Y0113427D01*
X0215476Y0115078D01*
X0216026Y0115629D01*
X0216577Y0115629D01*
X0217127Y0115078D01*
X0217127Y0113977D01*
X0216577Y0113427D01*
X0215476Y0113427D02*
X0214375Y0114528D01*
X0213824Y0115629D01*
X0214925Y0120112D02*
X0213824Y0121213D01*
X0214925Y0122314D01*
X0217127Y0122314D01*
X0217127Y0123427D02*
X0216577Y0123427D01*
X0214375Y0125629D01*
X0213824Y0125629D01*
X0213824Y0123427D01*
X0215476Y0122314D02*
X0215476Y0120112D01*
X0214925Y0120112D02*
X0217127Y0120112D01*
X0217127Y0131112D02*
X0214925Y0131112D01*
X0213824Y0132213D01*
X0214925Y0133314D01*
X0217127Y0133314D01*
X0216577Y0134427D02*
X0215476Y0134427D01*
X0215476Y0136078D01*
X0216026Y0136629D01*
X0216577Y0136629D01*
X0217127Y0136078D01*
X0217127Y0134977D01*
X0216577Y0134427D01*
X0215476Y0134427D02*
X0214375Y0135528D01*
X0213824Y0136629D01*
X0214925Y0140112D02*
X0213824Y0141213D01*
X0214925Y0142314D01*
X0217127Y0142314D01*
X0216577Y0143427D02*
X0217127Y0143977D01*
X0217127Y0145078D01*
X0216577Y0145629D01*
X0215476Y0145629D01*
X0214925Y0145078D01*
X0214925Y0144528D01*
X0215476Y0143427D01*
X0213824Y0143427D01*
X0213824Y0145629D01*
X0214375Y0148112D02*
X0216577Y0148112D01*
X0217127Y0148662D01*
X0217127Y0149763D01*
X0216577Y0150314D01*
X0215476Y0150314D01*
X0215476Y0149213D01*
X0214375Y0150314D02*
X0213824Y0149763D01*
X0213824Y0148662D01*
X0214375Y0148112D01*
X0213824Y0151427D02*
X0217127Y0153629D01*
X0213824Y0153629D01*
X0213824Y0154742D02*
X0213824Y0156393D01*
X0214375Y0156943D01*
X0216577Y0156943D01*
X0217127Y0156393D01*
X0217127Y0154742D01*
X0213824Y0154742D01*
X0213824Y0151427D02*
X0217127Y0151427D01*
X0215476Y0142314D02*
X0215476Y0140112D01*
X0214925Y0140112D02*
X0217127Y0140112D01*
X0215476Y0133314D02*
X0215476Y0131112D01*
X0173213Y0155729D02*
X0172596Y0155112D01*
X0171361Y0155112D01*
X0170744Y0155729D01*
X0169530Y0156964D02*
X0167061Y0156964D01*
X0165847Y0157581D02*
X0165229Y0156964D01*
X0163995Y0156964D01*
X0163378Y0157581D01*
X0163378Y0158198D01*
X0163995Y0158815D01*
X0165229Y0158815D01*
X0165847Y0158198D01*
X0165847Y0157581D01*
X0165229Y0156964D02*
X0165847Y0156346D01*
X0165847Y0155729D01*
X0165229Y0155112D01*
X0163995Y0155112D01*
X0163378Y0155729D01*
X0163378Y0156346D01*
X0163995Y0156964D01*
X0162163Y0157581D02*
X0159695Y0155112D01*
X0162163Y0155112D01*
X0162163Y0157581D02*
X0162163Y0158198D01*
X0161546Y0158815D01*
X0160312Y0158815D01*
X0159695Y0158198D01*
X0158480Y0158198D02*
X0158480Y0156964D01*
X0157863Y0156346D01*
X0156011Y0156346D01*
X0156011Y0155112D02*
X0156011Y0158815D01*
X0157863Y0158815D01*
X0158480Y0158198D01*
X0154790Y0158815D02*
X0153556Y0158815D01*
X0154173Y0158815D02*
X0154173Y0155112D01*
X0153556Y0155112D02*
X0154790Y0155112D01*
X0152342Y0155729D02*
X0152342Y0158198D01*
X0151724Y0158815D01*
X0149873Y0158815D01*
X0149873Y0155112D01*
X0151724Y0155112D01*
X0152342Y0155729D01*
X0170744Y0158198D02*
X0171361Y0158815D01*
X0172596Y0158815D01*
X0173213Y0158198D01*
X0173213Y0157581D01*
X0172596Y0156964D01*
X0173213Y0156346D01*
X0173213Y0155729D01*
X0172596Y0156964D02*
X0171978Y0156964D01*
X0213824Y0170112D02*
X0213824Y0171763D01*
X0214375Y0172314D01*
X0214925Y0172314D01*
X0215476Y0171763D01*
X0215476Y0170112D01*
X0217127Y0170112D02*
X0213824Y0170112D01*
X0215476Y0171763D02*
X0216026Y0172314D01*
X0216577Y0172314D01*
X0217127Y0171763D01*
X0217127Y0170112D01*
X0216577Y0173427D02*
X0217127Y0173977D01*
X0217127Y0175078D01*
X0216577Y0175629D01*
X0214375Y0175629D01*
X0213824Y0175078D01*
X0213824Y0173977D01*
X0214375Y0173427D01*
X0214925Y0173427D01*
X0215476Y0173977D01*
X0215476Y0175629D01*
X0215476Y0181112D02*
X0215476Y0182763D01*
X0216026Y0183314D01*
X0216577Y0183314D01*
X0217127Y0182763D01*
X0217127Y0181112D01*
X0213824Y0181112D01*
X0213824Y0182763D01*
X0214375Y0183314D01*
X0214925Y0183314D01*
X0215476Y0182763D01*
X0216026Y0184427D02*
X0215476Y0184977D01*
X0215476Y0186078D01*
X0216026Y0186629D01*
X0216577Y0186629D01*
X0217127Y0186078D01*
X0217127Y0184977D01*
X0216577Y0184427D01*
X0216026Y0184427D01*
X0215476Y0184977D02*
X0214925Y0184427D01*
X0214375Y0184427D01*
X0213824Y0184977D01*
X0213824Y0186078D01*
X0214375Y0186629D01*
X0214925Y0186629D01*
X0215476Y0186078D01*
X0214375Y0191112D02*
X0216577Y0191112D01*
X0217127Y0191662D01*
X0217127Y0192763D01*
X0216577Y0193314D01*
X0216577Y0194427D02*
X0217127Y0194977D01*
X0217127Y0196078D01*
X0216577Y0196629D01*
X0214375Y0196629D01*
X0213824Y0196078D01*
X0213824Y0194977D01*
X0214375Y0194427D01*
X0214925Y0194427D01*
X0215476Y0194977D01*
X0215476Y0196629D01*
X0214375Y0193314D02*
X0213824Y0192763D01*
X0213824Y0191662D01*
X0214375Y0191112D01*
X0235412Y0214314D02*
X0237614Y0212112D01*
X0182925Y0214314D02*
X0182375Y0214314D01*
X0182925Y0215415D02*
X0182925Y0215965D01*
X0137617Y0215415D02*
X0136516Y0214864D01*
D13*
X0245957Y0196300D02*
X0250027Y0192229D01*
X0247992Y0192229D02*
X0247992Y0196300D01*
X0250027Y0196300D02*
X0245957Y0192229D01*
X0245957Y0194265D02*
X0250027Y0194265D01*
X0254309Y0008011D02*
X0253559Y0007260D01*
X0253559Y0004258D01*
X0254309Y0003507D01*
X0255811Y0003507D01*
X0256561Y0004258D01*
X0258163Y0003507D02*
X0258163Y0008011D01*
X0261165Y0003507D01*
X0261165Y0008011D01*
X0262767Y0006510D02*
X0264268Y0008011D01*
X0264268Y0003507D01*
X0262767Y0003507D02*
X0265769Y0003507D01*
X0267370Y0004258D02*
X0270373Y0007260D01*
X0270373Y0004258D01*
X0269622Y0003507D01*
X0268121Y0003507D01*
X0267370Y0004258D01*
X0267370Y0007260D01*
X0268121Y0008011D01*
X0269622Y0008011D01*
X0270373Y0007260D01*
X0256561Y0007260D02*
X0255811Y0008011D01*
X0254309Y0008011D01*
X0026894Y0007420D02*
X0026894Y0006670D01*
X0023892Y0003667D01*
X0023892Y0002917D01*
X0022290Y0002917D02*
X0022290Y0007420D01*
X0023892Y0007420D02*
X0026894Y0007420D01*
X0022290Y0002917D02*
X0019288Y0007420D01*
X0019288Y0002917D01*
X0017686Y0003667D02*
X0016936Y0002917D01*
X0015435Y0002917D01*
X0014684Y0003667D01*
X0014684Y0006670D01*
X0015435Y0007420D01*
X0016936Y0007420D01*
X0017686Y0006670D01*
X0009597Y0191229D02*
X0005527Y0195300D01*
X0007562Y0195300D02*
X0007562Y0191229D01*
X0005527Y0191229D02*
X0009597Y0195300D01*
X0009597Y0193265D02*
X0005527Y0193265D01*
D14*
X0075277Y0205962D02*
X0210277Y0205962D01*
D15*
X0214342Y0167159D02*
X0213975Y0166793D01*
X0213975Y0165692D01*
X0216177Y0165692D01*
X0216177Y0166793D01*
X0215810Y0167159D01*
X0214342Y0167159D01*
X0214342Y0164950D02*
X0213975Y0164583D01*
X0213975Y0163482D01*
X0216177Y0163482D01*
X0216177Y0164583D01*
X0215810Y0164950D01*
X0214342Y0164950D01*
X0213975Y0162740D02*
X0215443Y0162740D01*
X0216177Y0162006D01*
X0215443Y0161272D01*
X0213975Y0161272D01*
X0214709Y0160530D02*
X0216177Y0160530D01*
X0215076Y0160530D02*
X0215076Y0159062D01*
X0214709Y0159062D02*
X0213975Y0159796D01*
X0214709Y0160530D01*
X0214709Y0159062D02*
X0216177Y0159062D01*
X0242342Y0047159D02*
X0241975Y0046793D01*
X0241975Y0045692D01*
X0244177Y0045692D01*
X0244177Y0046793D01*
X0243810Y0047159D01*
X0242342Y0047159D01*
X0241975Y0044950D02*
X0244177Y0044950D01*
X0241975Y0043482D01*
X0244177Y0043482D01*
X0243810Y0042740D02*
X0243076Y0042740D01*
X0243076Y0042006D01*
X0242342Y0042740D02*
X0241975Y0042373D01*
X0241975Y0041639D01*
X0242342Y0041272D01*
X0243810Y0041272D01*
X0244177Y0041639D01*
X0244177Y0042373D01*
X0243810Y0042740D01*
X0244177Y0040530D02*
X0242709Y0040530D01*
X0241975Y0039796D01*
X0242709Y0039062D01*
X0244177Y0039062D01*
X0243076Y0039062D02*
X0243076Y0040530D01*
X0242342Y0027159D02*
X0241975Y0026793D01*
X0241975Y0025692D01*
X0244177Y0025692D01*
X0244177Y0026793D01*
X0243810Y0027159D01*
X0242342Y0027159D01*
X0241975Y0024950D02*
X0244177Y0024950D01*
X0241975Y0023482D01*
X0244177Y0023482D01*
X0243810Y0022740D02*
X0243076Y0022740D01*
X0243076Y0022006D01*
X0242342Y0022740D02*
X0241975Y0022373D01*
X0241975Y0021639D01*
X0242342Y0021272D01*
X0243810Y0021272D01*
X0244177Y0021639D01*
X0244177Y0022373D01*
X0243810Y0022740D01*
X0244177Y0020530D02*
X0242709Y0020530D01*
X0241975Y0019796D01*
X0242709Y0019062D01*
X0244177Y0019062D01*
X0243076Y0019062D02*
X0243076Y0020530D01*
X0241810Y0017159D02*
X0240342Y0017159D01*
X0239975Y0016793D01*
X0239975Y0015692D01*
X0242177Y0015692D01*
X0242177Y0016793D01*
X0241810Y0017159D01*
X0242177Y0014950D02*
X0239975Y0014950D01*
X0239975Y0013482D02*
X0242177Y0014950D01*
X0242177Y0013482D02*
X0239975Y0013482D01*
X0240342Y0012740D02*
X0239975Y0012373D01*
X0239975Y0011639D01*
X0240342Y0011272D01*
X0241810Y0011272D01*
X0242177Y0011639D01*
X0242177Y0012373D01*
X0241810Y0012740D01*
X0241076Y0012740D01*
X0241076Y0012006D01*
X0241076Y0010530D02*
X0241076Y0009062D01*
X0240709Y0009062D02*
X0239975Y0009796D01*
X0240709Y0010530D01*
X0242177Y0010530D01*
X0242177Y0009062D02*
X0240709Y0009062D01*
D16*
X0086277Y0009962D02*
X0086277Y0038962D01*
X0086275Y0039069D01*
X0086269Y0039176D01*
X0086260Y0039283D01*
X0086246Y0039389D01*
X0086229Y0039495D01*
X0086208Y0039600D01*
X0086184Y0039704D01*
X0086155Y0039807D01*
X0086123Y0039909D01*
X0086088Y0040010D01*
X0086049Y0040110D01*
X0086006Y0040208D01*
X0085960Y0040305D01*
X0085910Y0040400D01*
X0085857Y0040493D01*
X0085801Y0040584D01*
X0085741Y0040673D01*
X0085679Y0040760D01*
X0085613Y0040844D01*
X0085544Y0040927D01*
X0085473Y0041006D01*
X0085398Y0041083D01*
X0085321Y0041158D01*
X0085242Y0041229D01*
X0085159Y0041298D01*
X0085075Y0041364D01*
X0084988Y0041426D01*
X0084899Y0041486D01*
X0084808Y0041542D01*
X0084715Y0041595D01*
X0084620Y0041645D01*
X0084523Y0041691D01*
X0084425Y0041734D01*
X0084325Y0041773D01*
X0084224Y0041808D01*
X0084122Y0041840D01*
X0084019Y0041869D01*
X0083915Y0041893D01*
X0083810Y0041914D01*
X0083704Y0041931D01*
X0083598Y0041945D01*
X0083491Y0041954D01*
X0083384Y0041960D01*
X0083277Y0041962D01*
X0078277Y0041962D01*
D17*
X0123198Y0094226D02*
X0163356Y0094226D01*
X0163356Y0114698D01*
X0123198Y0114698D01*
M02*
